<svg width="72" height="60" viewBox="0 0 72 60" fill="none" xmlns="http://www.w3.org/2000/svg">
<path d="M1 59.5479H71V58.8919H65.34V48.2359H60.84V41.5579H56.06L55.94 41.2159C53.22 33.3159 45.02 27.7959 35.996 27.7959C26.973 27.7959 18.781 33.3159 16.059 41.2159L15.941 41.5569H11.161V48.2359H6.659V58.8919H1V59.5479ZM29.611 58.8499H27.895V45.5899H29.611V58.8499ZM41.761 58.8499H30.267V56.0099H41.733L41.761 58.8499ZM41.761 55.3049H30.267V52.4649H41.733L41.761 55.3049ZM41.761 51.7669H30.267V48.9059H41.733L41.761 51.7659V51.7669ZM44.105 58.8919H42.417V45.6319H44.105V58.8919ZM64.657 58.8919H44.789V56.0099H64.657V58.8919ZM64.657 55.3469H44.789V52.4649H64.657V55.3469ZM64.657 48.9469V51.8089H44.789V48.9479H64.657V48.9469ZM11.844 42.2409H29.074V41.5439H16.631L16.897 40.8459C19.737 33.4629 27.413 28.4869 35.997 28.4869C44.58 28.4869 52.263 33.4629 55.103 40.8739L55.368 41.5709H42.92V42.2689H60.157V48.2639H44.803V44.8939H41.733V48.2359H30.267V44.8929H27.211V48.2359H11.858L11.844 42.2409ZM7.344 48.9199H27.21V51.7799H7.343V48.9199H7.344ZM7.344 52.4649H27.21V55.3189H7.343V52.4649H7.344ZM7.344 56.0099H27.21V58.8919H7.343V56.0099H7.344Z" fill="#00B9AE" stroke="#00B9AE" stroke-width="0.5"/>
<path d="M17.118 43.644H16.093V46.833H17.118V43.643V43.644ZM22.576 43.644H21.55V46.833H22.576V43.643V43.644ZM50.276 43.644H49.25V46.833H50.276V43.643V43.644ZM56.368 43.644H55.342V46.833H56.368V43.643V43.644ZM36.171 24.698H41.279V24H30.672V24.698H35.487V27.078H25.76V27.775H28.398V30.783H25.76V31.481H28.398V34.468H25.76V35.165H28.398V44.935H29.096V35.165H42.92V44.935H43.618V35.165H45.914V34.468H43.604V31.467H45.9V30.769H43.604V27.761H45.9V27.063H36.17V24.698H36.171ZM42.919 34.468H29.081V31.467H42.919V34.467V34.468ZM42.919 27.74V30.783H29.081V27.761L42.919 27.741V27.74Z" fill="#204B57"/>
<path d="M17.118 43.644H16.093V46.833H17.118V43.643V43.644ZM22.576 43.644H21.55V46.833H22.576V43.643V43.644ZM50.276 43.644H49.25V46.833H50.276V43.643V43.644ZM56.368 43.644H55.342V46.833H56.368V43.643V43.644ZM36.171 24.698H41.279V24H30.672V24.698H35.487V27.078H25.76V27.775H28.398V30.783H25.76V31.481H28.398V34.468H25.76V35.165H28.398V44.935H29.096V35.165H42.92V44.935H43.618V35.165H45.914V34.468H43.604V31.467H45.9V30.769H43.604V27.761H45.9V27.063H36.17V24.698H36.171ZM42.919 34.468H29.081V31.467H42.919V34.467V34.468ZM42.919 27.74V30.783H29.081V27.761L42.919 27.741V27.74Z" stroke="#204B57" stroke-width="0.5"/>
</svg>
