<svg width="71" height="60" viewBox="0 0 71 60" fill="none" xmlns="http://www.w3.org/2000/svg">
<g clip-path="url(#clip0_818_14854)">
<path d="M61.5821 59.202V47.842C61.6275 47.3984 61.5815 46.9501 61.447 46.525C61.3124 46.0998 61.0921 45.7067 60.7997 45.37C60.5073 45.0333 60.149 44.7601 59.7469 44.5673C59.3448 44.3745 58.9074 44.2661 58.4618 44.2489C58.0162 44.2318 57.5718 44.3061 57.156 44.4674C56.7402 44.6287 56.3619 44.8734 56.0445 45.1866C55.727 45.4998 55.4771 45.8748 55.3102 46.2883C55.1433 46.7018 55.0629 47.1452 55.0741 47.591H41.5021V23.545H39.7671V18.34H36.5821V14H35.7841V18.339H32.6421V23.545H30.9071V47.574H17.3001C17.2877 46.7057 16.9455 45.8745 16.3429 45.2493C15.7403 44.624 14.9223 44.2514 14.0551 44.207C13.1449 44.265 12.2941 44.679 11.6868 45.3595C11.0796 46.0399 10.7646 46.9321 10.8101 47.843V59.21H10.1331V59.991H62.2421V59.193L61.5821 59.202ZM55.0651 56.277V59.202H41.5111V56.26L55.0651 56.277ZM41.5111 55.47V52.182H43.9581V55.479L41.5111 55.47ZM44.7481 55.47V52.182H47.6281V55.479L44.7481 55.47ZM48.4181 55.47V52.182H51.3001V55.479L48.4201 55.47H48.4181ZM55.0651 52.182V55.479H52.0901V52.182H55.0661H55.0651ZM55.0651 48.372V51.383H41.5111V48.363L55.0651 48.372ZM60.7931 48.372V59.193H55.8631V48.363L60.7931 48.372ZM58.3281 45.005C58.991 45.0448 59.6137 45.3365 60.0686 45.8204C60.5235 46.3043 60.7763 46.9438 60.7751 47.608H55.8721C55.8712 46.9424 56.1253 46.3018 56.582 45.8177C57.0388 45.3337 57.6636 45.0428 58.3281 45.005ZM33.4501 23.545V19.085H38.9351V23.545H33.4501ZM40.7051 56.234V59.176H31.6801V56.25L40.7051 56.233V56.234ZM40.7051 30.878V55.436H31.6801V30.896L40.7051 30.878ZM31.6801 24.335H40.7051V30.08H31.6801V24.335ZM16.5201 48.363V59.193H11.5921V48.363H16.5201ZM14.0561 44.996C14.7208 45.0336 15.3459 45.3245 15.8027 45.8088C16.2595 46.2932 16.5134 46.9342 16.5121 47.6H11.6091C11.6076 46.9357 11.8602 46.2959 12.3152 45.8118C12.7701 45.3277 13.3929 45.0358 14.0561 44.996ZM30.8731 56.277V59.21H17.3101V56.27L30.8731 56.278V56.277ZM17.3101 55.497V52.18H20.2861V55.478L17.3101 55.495V55.497ZM21.0851 55.497V52.18H23.9571V55.478L21.0851 55.495V55.497ZM24.7551 55.497V52.18H27.6281V55.478L24.7561 55.495L24.7551 55.497ZM30.8301 52.199V55.496H28.4261V52.182L30.8301 52.199ZM30.8301 48.389V51.409H17.3101V48.363L30.8301 48.389Z" fill="#00B9AE"/>
<path d="M70.529 59.202H2.99902V59.992H70.529V59.202Z" fill="#00B9AE"/>
<path d="M61.5821 59.202V47.842C61.6275 47.3984 61.5815 46.9501 61.447 46.525C61.3124 46.0998 61.0921 45.7067 60.7997 45.37C60.5073 45.0333 60.149 44.7601 59.7469 44.5673C59.3448 44.3745 58.9074 44.2661 58.4618 44.2489C58.0162 44.2318 57.5718 44.3061 57.156 44.4674C56.7402 44.6287 56.3619 44.8734 56.0445 45.1866C55.727 45.4998 55.4771 45.8747 55.3102 46.2883C55.1433 46.7018 55.0629 47.1452 55.0741 47.591H41.5021V23.545H39.7671V18.34H36.5821V14H35.7841V18.339H32.6421V23.545H30.9071V47.574H17.3001C17.2877 46.7057 16.9455 45.8745 16.3429 45.2493C15.7403 44.624 14.9223 44.2513 14.0551 44.207C13.1449 44.265 12.2941 44.679 11.6868 45.3595C11.0796 46.0399 10.7646 46.9321 10.8101 47.843V59.21H10.1331V59.991H62.2421V59.193L61.5821 59.202V59.202ZM55.0651 56.277V59.202H41.5111V56.26L55.0651 56.277V56.277ZM41.5111 55.47V52.182H43.9581V55.479L41.5111 55.47ZM44.7481 55.47V52.182H47.6281V55.479L44.7481 55.47ZM48.4181 55.47V52.182H51.3001V55.479L48.4201 55.47H48.4181ZM55.0651 52.182V55.479H52.0901V52.182H55.0661H55.0651ZM55.0651 48.372V51.383H41.5111V48.363L55.0651 48.372V48.372ZM60.7931 48.372V59.193H55.8631V48.363L60.7931 48.372ZM58.3281 45.005C58.991 45.0448 59.6137 45.3365 60.0686 45.8204C60.5235 46.3043 60.7763 46.9438 60.7751 47.608H55.8721C55.8712 46.9424 56.1253 46.3018 56.582 45.8177C57.0388 45.3337 57.6636 45.0428 58.3281 45.005V45.005ZM33.4501 23.545V19.085H38.9351V23.545H33.4501ZM40.7051 56.234V59.176H31.6801V56.25L40.7051 56.233V56.234ZM40.7051 30.878V55.436H31.6801V30.896L40.7051 30.878ZM31.6801 24.335H40.7051V30.08H31.6801V24.335ZM16.5201 48.363V59.193H11.5921V48.363H16.5201ZM14.0561 44.996C14.7208 45.0336 15.3459 45.3245 15.8027 45.8088C16.2595 46.2932 16.5134 46.9342 16.5121 47.6H11.6091C11.6076 46.9357 11.8602 46.2959 12.3152 45.8118C12.7701 45.3277 13.3929 45.0358 14.0561 44.996V44.996ZM30.8731 56.277V59.21H17.3101V56.27L30.8731 56.278V56.277ZM17.3101 55.497V52.18H20.2861V55.478L17.3101 55.495V55.497ZM21.0851 55.497V52.18H23.9571V55.478L21.0851 55.495V55.497ZM24.7551 55.497V52.18H27.6281V55.478L24.7561 55.495L24.7551 55.497ZM30.8301 52.199V55.496H28.4261V52.182L30.8301 52.199ZM30.8301 48.389V51.409H17.3101V48.363L30.8301 48.389V48.389Z" stroke="#00B9AE" stroke-width="0.5"/>
<path d="M70.529 59.202H2.99902V59.992H70.529V59.202Z" stroke="#00B9AE" stroke-width="0.5"/>
<path d="M38.0999 33.88H34.2129V34.67H38.0999V33.88ZM36.1479 25.793C35.8607 25.7928 35.5798 25.8779 35.341 26.0376C35.1022 26.1972 34.9162 26.4242 34.8066 26.6897C34.697 26.9553 34.6688 27.2474 34.7254 27.529C34.7821 27.8106 34.9211 28.069 35.1248 28.2715C35.3286 28.474 35.5879 28.6114 35.8698 28.6663C36.1518 28.7212 36.4437 28.6911 36.7085 28.5798C36.9734 28.4686 37.1992 28.2812 37.3573 28.0414C37.5155 27.8016 37.5989 27.5202 37.5969 27.233C37.5968 27.0431 37.5591 26.8551 37.4861 26.6798C37.413 26.5045 37.3061 26.3453 37.1713 26.2115C37.0366 26.0777 36.8767 25.9718 36.7009 25.9C36.5251 25.8282 36.3368 25.7918 36.1469 25.793H36.1479ZM36.8419 27.233C36.8419 27.4194 36.7678 27.5983 36.636 27.7301C36.5042 27.8619 36.3253 27.936 36.1389 27.936C35.9531 27.9339 35.7755 27.8592 35.6441 27.7278C35.5127 27.5964 35.438 27.4188 35.4359 27.233C35.4405 27.0481 35.516 26.872 35.6469 26.7413C35.7778 26.6106 35.954 26.5353 36.1389 26.531C36.326 26.531 36.5056 26.6046 36.6389 26.736C36.7721 26.8674 36.8483 27.0459 36.8509 27.233H36.8419ZM34.6639 37.256H33.7269V39.981H34.6639V37.256ZM10.3759 59.202H7.6499V59.992H10.3749V59.202H10.3759ZM64.7839 59.202H62.0589V59.992H64.7839V59.202ZM38.5779 37.256H37.6399V39.981H38.5779V37.256Z" fill="#204B57"/>
<path d="M67.292 47.582C67.2681 46.7171 66.9219 45.8923 66.3214 45.2695C65.7209 44.6466 64.9094 44.2705 64.046 44.215C63.1342 44.2687 62.2804 44.6797 61.6697 45.3589C61.0591 46.0381 60.7408 46.9306 60.784 47.843V59.99H67.3V47.582H67.29H67.292ZM64.046 44.979C64.7105 45.0166 65.3354 45.3073 65.7923 45.7915C66.2491 46.2756 66.503 46.9163 66.502 47.582H61.591C61.5899 46.9165 61.8437 46.2759 62.3003 45.7918C62.7569 45.3077 63.3816 45.0168 64.046 44.979ZM66.511 59.176H61.582V48.372H66.511V59.176ZM11.582 47.582C11.5576 46.7172 11.2113 45.8927 10.6109 45.2699C10.0105 44.6472 9.19924 44.2709 8.33597 44.215C7.42403 44.2684 6.56996 44.6794 5.95909 45.3586C5.34821 46.0378 5.02981 46.9305 5.07297 47.843V59.99H11.59V47.582H11.582ZM8.33597 44.98C9.00355 45.0133 9.63271 45.3023 10.0931 45.7868C10.5535 46.2714 10.8098 46.9146 10.809 47.583H5.87997C5.87891 46.9173 6.13288 46.2766 6.58969 45.7924C7.04649 45.3083 7.6714 45.0176 8.33597 44.98ZM10.809 59.203H5.87197V48.373H10.809V59.203Z" fill="#204B57"/>
<path d="M38.0999 33.88H34.2129V34.67H38.0999V33.88ZM36.1479 25.793C35.8607 25.7928 35.5798 25.8779 35.341 26.0376C35.1022 26.1972 34.9162 26.4242 34.8066 26.6897C34.697 26.9553 34.6688 27.2474 34.7254 27.529C34.7821 27.8106 34.9211 28.069 35.1248 28.2715C35.3286 28.474 35.5879 28.6114 35.8698 28.6663C36.1518 28.7212 36.4437 28.6911 36.7085 28.5798C36.9734 28.4686 37.1992 28.2812 37.3573 28.0414C37.5155 27.8016 37.5989 27.5202 37.5969 27.233C37.5968 27.0431 37.5591 26.8551 37.4861 26.6798C37.413 26.5045 37.3061 26.3453 37.1713 26.2115C37.0366 26.0777 36.8767 25.9718 36.7009 25.9C36.5251 25.8282 36.3368 25.7918 36.1469 25.793H36.1479ZM36.8419 27.233C36.8419 27.4194 36.7678 27.5983 36.636 27.7301C36.5042 27.8619 36.3253 27.936 36.1389 27.936C35.9531 27.9339 35.7755 27.8592 35.6441 27.7278C35.5127 27.5964 35.438 27.4188 35.4359 27.233C35.4405 27.0481 35.516 26.872 35.6469 26.7413C35.7778 26.6106 35.954 26.5353 36.1389 26.531C36.326 26.531 36.5056 26.6046 36.6389 26.736C36.7721 26.8674 36.8483 27.0459 36.8509 27.233H36.8419ZM34.6639 37.256H33.7269V39.981H34.6639V37.256ZM10.3759 59.202H7.6499V59.992H10.3749V59.202H10.3759ZM64.7839 59.202H62.0589V59.992H64.7839V59.202ZM38.5779 37.256H37.6399V39.981H38.5779V37.256Z" stroke="#204B57" stroke-width="0.5"/>
<path d="M67.292 47.582C67.2681 46.7171 66.9219 45.8923 66.3214 45.2695C65.7209 44.6466 64.9094 44.2705 64.046 44.215C63.1342 44.2687 62.2804 44.6797 61.6697 45.3589C61.0591 46.0381 60.7408 46.9306 60.784 47.843V59.99H67.3V47.582H67.29H67.292ZM64.046 44.979C64.7105 45.0166 65.3354 45.3073 65.7923 45.7915C66.2491 46.2756 66.503 46.9163 66.502 47.582H61.591C61.5899 46.9165 61.8437 46.2759 62.3003 45.7918C62.7569 45.3077 63.3816 45.0168 64.046 44.979ZM66.511 59.176H61.582V48.372H66.511V59.176ZM11.582 47.582C11.5576 46.7172 11.2113 45.8927 10.6109 45.2699C10.0105 44.6472 9.19924 44.2709 8.33597 44.215C7.42403 44.2684 6.56996 44.6794 5.95909 45.3586C5.34821 46.0378 5.02981 46.9305 5.07297 47.843V59.99H11.59V47.582H11.582ZM8.33597 44.98C9.00355 45.0133 9.63271 45.3023 10.0931 45.7868C10.5535 46.2714 10.8098 46.9146 10.809 47.583H5.87997C5.87891 46.9173 6.13288 46.2766 6.58969 45.7924C7.04649 45.3083 7.6714 45.0176 8.33597 44.98V44.98ZM10.809 59.203H5.87197V48.373H10.809V59.203Z" stroke="#204B57" stroke-width="0.5"/>
</g>
<defs>
<clipPath id="clip0_818_14854">
<rect width="71" height="60" fill="white"/>
</clipPath>
</defs>
</svg>
