<svg width="55" height="60" viewBox="0 0 55 60" fill="none" xmlns="http://www.w3.org/2000/svg">
<g clip-path="url(#clip0_860_10177)">
<path d="M22.2699 12.2086C22.1508 12.2066 22.0339 12.2411 21.9339 12.3077C21.8339 12.3744 21.7555 12.4701 21.7085 12.5829C21.6616 12.6956 21.6482 12.8201 21.6702 12.9406C21.6923 13.0612 21.7486 13.1722 21.8321 13.2597C21.9156 13.3471 22.0225 13.407 22.1391 13.4317C22.2558 13.4564 22.3769 13.4448 22.4872 13.3983C22.5974 13.3519 22.6917 13.2727 22.7581 13.1709C22.8244 13.069 22.8599 12.9492 22.8599 12.8265C22.8599 12.6644 22.7981 12.5088 22.6877 12.3932C22.5774 12.2776 22.4273 12.2113 22.2699 12.2086Z" fill="#204B57" stroke="#204B57" stroke-width="0.5"/>
<path d="M35.6901 12.2087C35.5714 12.2087 35.4554 12.2449 35.3567 12.3128C35.2581 12.3807 35.1812 12.4772 35.1358 12.5901C35.0903 12.703 35.0785 12.8273 35.1016 12.9471C35.1248 13.067 35.1819 13.1771 35.2658 13.2635C35.3497 13.3499 35.4566 13.4087 35.573 13.4326C35.6894 13.4564 35.8101 13.4442 35.9197 13.3974C36.0293 13.3507 36.123 13.2715 36.189 13.1698C36.2549 13.0682 36.2901 12.9488 36.2901 12.8266C36.2901 12.6627 36.2269 12.5055 36.1144 12.3897C36.0018 12.2738 35.8492 12.2087 35.6901 12.2087Z" fill="#204B57" stroke="#204B57" stroke-width="0.5"/>
<path d="M32.6999 12.4455H25.2499C25.1464 12.4455 25.0472 12.4878 24.9741 12.5631C24.901 12.6385 24.8599 12.7406 24.8599 12.8471C24.8624 12.9528 24.9043 13.0535 24.9769 13.1282C25.0495 13.203 25.1472 13.2462 25.2499 13.2488H32.6999C32.8033 13.2488 32.9025 13.2065 32.9756 13.1311C33.0488 13.0558 33.0899 12.9537 33.0899 12.8471C33.0912 12.794 33.0821 12.7412 33.063 12.6918C33.0439 12.6424 33.0152 12.5976 32.9787 12.56C32.9422 12.5224 32.8987 12.4929 32.8507 12.4732C32.8028 12.4535 32.7515 12.4441 32.6999 12.4455Z" fill="#204B57" stroke="#204B57" stroke-width="0.5"/>
<path d="M49.56 58.7871V23.1247H51.56V22.3215H47.4V16.2456H43.4V8.64554H37.5V5H19V8.64554H13.1V16.2456H9.1V22.3215H4.76V23.1247H7.17V58.7871H0V59.5801H55V58.7768L49.56 58.7871ZM37.1 35.3795V58.7871H34.1V35.3795H37.1ZM22.58 35.3795V58.7871H19.63V35.3795H22.58ZM23.36 34.9779C23.36 33.6122 23.8868 32.3026 24.8245 31.3369C25.7621 30.3713 27.0339 29.8288 28.36 29.8288C29.6861 29.8288 30.9579 30.3713 31.8955 31.3369C32.8332 32.3026 33.36 33.6122 33.36 34.9779V58.7871H23.36V34.9779ZM37.1 26.4922V34.5659H34.1C34.0134 33.0532 33.3688 31.6316 32.2981 30.5921C31.2274 29.5526 29.8115 28.9736 28.34 28.9736C26.8685 28.9736 25.4526 29.5526 24.3819 30.5921C23.3112 31.6316 22.6666 33.0532 22.58 34.5659H19.58V26.4922H37.1ZM8 49.7454V41.3524H18.9V49.7454H8ZM18.9 50.5589V58.7974H8V50.5589H18.9ZM18.9 25.6889V34.5659H8V23.1247H48.79V34.5659H37.89V25.6889H18.9ZM48.78 41.3627V49.7557H37.88V41.3627H48.78ZM48.78 50.5589V58.7974H37.88V50.5589H48.78ZM48.78 35.3795V40.5285H37.88V35.3795H48.78ZM36.74 5.80325V8.64554H19.81V5.80325H36.74ZM13.91 16.2456V9.44879H42.64V16.2456H13.91ZM9.91 22.3215V17.0488H46.62V22.3215H9.91ZM8 40.5491V35.4001H18.85V40.5491H8Z" fill="#00B9AE" stroke="#00B9AE" stroke-width="0.5"/>
<path d="M43.24 27.7501C42.8444 27.7501 42.4577 27.8674 42.1289 28.0871C41.8 28.3069 41.5436 28.6192 41.3922 28.9847C41.2409 29.3501 41.2013 29.7523 41.2784 30.1402C41.3556 30.5282 41.5461 30.8846 41.8258 31.1643C42.1055 31.444 42.4618 31.6345 42.8498 31.7116C43.2378 31.7888 43.6399 31.7492 44.0054 31.5978C44.3708 31.4464 44.6832 31.1901 44.9029 30.8612C45.1227 30.5323 45.24 30.1456 45.24 29.7501C45.24 29.2196 45.0293 28.7109 44.6542 28.3358C44.2791 27.9608 43.7704 27.7501 43.24 27.7501ZM44.44 29.7501C44.44 29.9874 44.3696 30.2194 44.2378 30.4167C44.1059 30.6141 43.9185 30.7679 43.6992 30.8587C43.4799 30.9495 43.2387 30.9733 43.0059 30.927C42.7731 30.8807 42.5593 30.7664 42.3915 30.5986C42.2236 30.4308 42.1093 30.2169 42.063 29.9842C42.0167 29.7514 42.0405 29.5101 42.1313 29.2908C42.2222 29.0716 42.376 28.8842 42.5733 28.7523C42.7706 28.6204 43.0027 28.5501 43.24 28.5501C43.5583 28.5501 43.8635 28.6765 44.0885 28.9015C44.3136 29.1266 44.44 29.4318 44.44 29.7501Z" fill="#204B57" stroke="#204B57" stroke-width="0.5"/>
<path d="M13.3999 27.7501C13.0043 27.7501 12.6177 27.8674 12.2888 28.0871C11.9599 28.3069 11.7035 28.6192 11.5521 28.9847C11.4008 29.3501 11.3612 29.7523 11.4383 30.1402C11.5155 30.5282 11.706 30.8846 11.9857 31.1643C12.2654 31.444 12.6218 31.6345 13.0097 31.7116C13.3977 31.7888 13.7998 31.7492 14.1653 31.5978C14.5307 31.4464 14.8431 31.1901 15.0628 30.8612C15.2826 30.5323 15.3999 30.1456 15.3999 29.7501C15.3999 29.2196 15.1892 28.7109 14.8141 28.3358C14.439 27.9608 13.9303 27.7501 13.3999 27.7501ZM14.5999 29.7501C14.6059 29.9886 14.5406 30.2235 14.4124 30.4247C14.2842 30.626 14.099 30.7844 13.8803 30.8799C13.6616 30.9753 13.4194 31.0034 13.1847 30.9605C12.95 30.9177 12.7334 30.8058 12.5626 30.6393C12.3917 30.4727 12.2744 30.259 12.2256 30.0254C12.1768 29.7919 12.1988 29.5491 12.2887 29.328C12.3785 29.107 12.5323 28.9178 12.7302 28.7846C12.9281 28.6513 13.1613 28.5801 13.3999 28.5801C13.7182 28.5801 14.0234 28.7065 14.2484 28.9315C14.4735 29.1566 14.5999 29.4618 14.5999 29.7801V29.7501Z" fill="#204B57" stroke="#204B57" stroke-width="0.5"/>
</g>
<defs>
<clipPath id="clip0_860_10177">
<rect width="55" height="60" fill="white"/>
</clipPath>
</defs>
</svg>
