<svg width="43" height="60" viewBox="0 0 43 60" fill="none" xmlns="http://www.w3.org/2000/svg">
<g clip-path="url(#clip0_860_10178)">
<path d="M19 39.0701L19.76 39.7201L21.65 37.5801L23.55 39.7701L24.3 39.1201L21.65 36.0701L19 39.0701Z" fill="#204B57" stroke="#204B57" stroke-width="0.5"/>
<path d="M18.3999 35.19L19.1499 35.85L21.6699 32.95L24.1899 35.85L24.9399 35.19L21.6699 31.42L18.3999 35.19Z" fill="#204B57" stroke="#204B57" stroke-width="0.5"/>
<path d="M21.5999 28.4601L24.5999 31.8601L25.3499 31.2101L21.5999 26.9301L17.8899 31.2101L18.6499 31.8601L21.5999 28.4601Z" fill="#204B57" stroke="#204B57" stroke-width="0.5"/>
<path d="M31.6499 14.24C25.0938 16.1801 18.1161 16.1801 11.5599 14.24L10.9099 14.05V59.58H32.2999V14.05L31.6499 14.24ZM11.9199 58.58V15.4C18.2607 17.1303 24.9492 17.1303 31.2899 15.4V58.58H11.9199Z" fill="#00B9AE" stroke="#00B9AE" stroke-width="0.5"/>
<path d="M27.57 15.9C27.5309 15.8465 27.4817 15.8013 27.425 15.7669C27.3684 15.7326 27.3055 15.7099 27.24 15.7C27.1732 15.6908 27.1052 15.6948 27.0399 15.712C26.9747 15.7291 26.9135 15.7591 26.86 15.8C26.7558 15.8852 26.6878 16.0067 26.67 16.14L21.6 54.72L16.54 16.14C16.5314 16.0728 16.5093 16.0079 16.4749 15.9495C16.4405 15.891 16.3946 15.8402 16.34 15.8C16.2882 15.7594 16.2287 15.7296 16.1651 15.7124C16.1016 15.6952 16.0352 15.691 15.97 15.7C15.904 15.7086 15.8405 15.7303 15.783 15.7637C15.7255 15.7971 15.6753 15.8417 15.6353 15.8948C15.5952 15.9478 15.5662 16.0084 15.5498 16.0728C15.5334 16.1372 15.5301 16.2043 15.54 16.27L21.12 58.84H22.12L27.67 16.27C27.679 16.2048 27.6748 16.1384 27.6576 16.0749C27.6405 16.0113 27.6106 15.9518 27.57 15.9Z" fill="#00B9AE" stroke="#00B9AE" stroke-width="0.5"/>
<path d="M11.22 53.4401H17.03V54.4501H11.22V53.4401Z" fill="#00B9AE" stroke="#00B9AE" stroke-width="0.5"/>
<path d="M11.22 50.6001H16.23V51.6101H11.22V50.6001Z" fill="#00B9AE" stroke="#00B9AE" stroke-width="0.5"/>
<path d="M11.22 47.7501H15.55V48.7601H11.22V47.7501Z" fill="#00B9AE" stroke="#00B9AE" stroke-width="0.5"/>
<path d="M11.22 44.9101H14.86V45.9201H11.22V44.9101Z" fill="#00B9AE" stroke="#00B9AE" stroke-width="0.5"/>
<path d="M26.1799 53.4401H31.9899V54.4501H26.1799V53.4401Z" fill="#00B9AE" stroke="#00B9AE" stroke-width="0.5"/>
<path d="M26.97 50.6001H31.98V51.6101H26.97V50.6001Z" fill="#00B9AE" stroke="#00B9AE" stroke-width="0.5"/>
<path d="M27.6599 47.7501H31.9899V48.7601H27.6599V47.7501Z" fill="#00B9AE" stroke="#00B9AE" stroke-width="0.5"/>
<path d="M28.3398 44.9101H31.9798V45.9201H28.3398V44.9101Z" fill="#00B9AE" stroke="#00B9AE" stroke-width="0.5"/>
<path d="M21.5999 10.9201C15.6799 10.9201 12.6799 11.4001 12.6799 12.3401C12.6799 13.2801 15.6799 13.7701 21.5999 13.7701C27.5199 13.7701 30.5299 13.2901 30.5299 12.3401C30.5299 11.3901 27.5299 10.9201 21.5999 10.9201ZM28.5999 12.3401C26.2798 12.6489 23.9403 12.7893 21.5999 12.7601C19.2595 12.7895 16.92 12.6491 14.5999 12.3401C16.9198 12.0293 19.2596 11.8923 21.5999 11.9301C23.9402 11.8923 26.2801 12.0293 28.5999 12.3401Z" fill="#00B9AE" stroke="#00B9AE" stroke-width="0.5"/>
<path d="M14.44 12.4701C13.7562 12.9673 13.2423 13.6633 12.9685 14.4632C12.6947 15.2632 12.6743 16.1281 12.91 16.9401C12.9336 17.0511 12.9957 17.1502 13.0854 17.2198C13.1751 17.2894 13.2866 17.3249 13.4 17.3201H13.52C13.5847 17.3048 13.6457 17.2769 13.6994 17.2379C13.7531 17.1988 13.7985 17.1495 13.833 17.0927C13.8674 17.0359 13.8902 16.9728 13.9 16.9071C13.9098 16.8414 13.9064 16.7744 13.89 16.7101C13.6879 16.1006 13.6867 15.4424 13.8865 14.8322C14.0863 14.222 14.4766 13.6919 15 13.3201C15.1119 13.2465 15.1904 13.1318 15.2185 13.0008C15.2466 12.8698 15.222 12.7331 15.15 12.6201C15.1145 12.5622 15.0676 12.5122 15.0121 12.473C14.9566 12.4339 14.8937 12.4065 14.8273 12.3925C14.7608 12.3784 14.6922 12.3781 14.6257 12.3914C14.5591 12.4047 14.4959 12.4315 14.44 12.4701Z" fill="#00B9AE" stroke="#00B9AE" stroke-width="0.5"/>
<path d="M28.7699 12.4701C28.7145 12.4338 28.6524 12.4091 28.5872 12.3975C28.522 12.3859 28.4552 12.3877 28.3907 12.4026C28.3262 12.4176 28.2654 12.4454 28.212 12.4845C28.1586 12.5236 28.1137 12.5731 28.0799 12.6301C28.0418 12.6844 28.0153 12.746 28.0022 12.811C27.989 12.8761 27.9895 12.9431 28.0036 13.008C28.0177 13.0728 28.0451 13.134 28.0841 13.1877C28.123 13.2414 28.1727 13.2865 28.2299 13.3201C28.7406 13.7001 29.12 14.2299 29.3154 14.8358C29.5108 15.4416 29.5124 16.0933 29.3199 16.7001C29.3035 16.7644 29.3001 16.8314 29.3099 16.8971C29.3197 16.9628 29.3425 17.0259 29.377 17.0827C29.4114 17.1395 29.4568 17.1888 29.5106 17.2279C29.5643 17.2669 29.6253 17.2949 29.6899 17.3101H29.8099C29.9238 17.3106 30.0344 17.2722 30.1235 17.2013C30.2126 17.1304 30.2749 17.0312 30.2999 16.9201C30.5326 16.111 30.5106 15.2499 30.2369 14.4537C29.9631 13.6576 29.451 12.965 28.7699 12.4701Z" fill="#00B9AE" stroke="#00B9AE" stroke-width="0.5"/>
<path d="M21.5999 6.58008C21.2999 6.58008 21.0999 6.72008 21.0999 6.92008V11.5801C21.0999 11.7801 21.3099 11.9201 21.5999 11.9201C21.8899 11.9201 22.1099 11.7801 22.1099 11.5801V6.92008C22.1099 6.72008 21.8999 6.58008 21.5999 6.58008Z" fill="#00B9AE" stroke="#00B9AE" stroke-width="0.5"/>
<path d="M0 58.6001H43.21V59.5801H0V58.6001Z" fill="#00B9AE"/>
</g>
<defs>
<clipPath id="clip0_860_10178">
<rect width="43" height="60" fill="white"/>
</clipPath>
</defs>
</svg>
