<svg width="70" height="60" viewBox="0 0 70 60" fill="none" xmlns="http://www.w3.org/2000/svg">
<mask id="path-1-inside-1_818_14857" fill="white">
<path d="M29.931 34.8801C29.7423 34.8741 29.5544 34.9059 29.3782 34.9737C29.202 35.0415 29.0412 35.1438 28.9052 35.2748C28.7692 35.4057 28.6608 35.5625 28.5864 35.736C28.512 35.9095 28.4731 36.0961 28.4719 36.2849C28.4708 36.4737 28.5075 36.6607 28.5798 36.8351C28.6521 37.0095 28.7586 37.1676 28.893 37.3002C29.0274 37.4327 29.187 37.537 29.3624 37.6069C29.5377 37.6768 29.7253 37.7109 29.914 37.7071C30.2826 37.6998 30.6338 37.5488 30.8927 37.2863C31.1515 37.0238 31.2976 36.6706 31.2999 36.3019C31.3021 35.9332 31.1602 35.5783 30.9045 35.3127C30.6488 35.0471 30.2995 34.8919 29.931 34.8801ZM30.617 36.2941C30.6172 36.4298 30.5772 36.5626 30.5019 36.6755C30.4266 36.7884 30.3196 36.8765 30.1942 36.9286C30.0689 36.9807 29.9309 36.9944 29.7978 36.9681C29.6647 36.9417 29.5423 36.8764 29.4463 36.7805C29.3503 36.6846 29.2848 36.5624 29.2583 36.4293C29.2317 36.2962 29.2452 36.1582 29.2971 36.0328C29.349 35.9074 29.437 35.8002 29.5498 35.7248C29.6626 35.6494 29.7953 35.6091 29.931 35.6091C30.1128 35.6091 30.2871 35.6813 30.4157 35.8097C30.5444 35.9381 30.6168 36.1123 30.617 36.2941ZM34.714 34.8801C34.4344 34.8803 34.1611 34.9634 33.9287 35.1189C33.6963 35.2744 33.5152 35.4953 33.4084 35.7537C33.3015 36.0121 33.2736 36.2964 33.3283 36.5706C33.383 36.8448 33.5177 37.0967 33.7155 37.2943C33.9133 37.492 34.1653 37.6265 34.4395 37.681C34.7138 37.7355 34.998 37.7074 35.2564 37.6004C35.5147 37.4933 35.7355 37.3121 35.8908 37.0796C36.0461 36.8471 36.129 36.5737 36.129 36.2941C36.1267 35.9197 35.9768 35.5612 35.7119 35.2965C35.447 35.0318 35.0885 34.8822 34.714 34.8801ZM35.4 36.2941C35.4002 36.4298 35.3602 36.5626 35.2849 36.6755C35.2096 36.7884 35.1026 36.8765 34.9772 36.9286C34.8519 36.9807 34.7139 36.9944 34.5808 36.9681C34.4477 36.9417 34.3253 36.8764 34.2293 36.7805C34.1333 36.6846 34.0678 36.5624 34.0413 36.4293C34.0147 36.2962 34.0282 36.1582 34.0801 36.0328C34.132 35.9074 34.22 35.8002 34.3328 35.7248C34.4456 35.6494 34.5783 35.6091 34.714 35.6091C34.8958 35.6091 35.0701 35.6813 35.1987 35.8097C35.3274 35.9381 35.3998 36.1123 35.4 36.2941ZM39.506 34.8801C39.3173 34.8741 39.1294 34.9059 38.9532 34.9737C38.777 35.0415 38.6162 35.1438 38.4802 35.2748C38.3442 35.4057 38.2358 35.5625 38.1614 35.736C38.087 35.9095 38.048 36.0961 38.0469 36.2849C38.0458 36.4737 38.0825 36.6607 38.1548 36.8351C38.2271 37.0095 38.3336 37.1676 38.468 37.3002C38.6024 37.4327 38.762 37.537 38.9373 37.6069C39.1127 37.6768 39.3003 37.7109 39.489 37.7071C39.8576 37.6998 40.2088 37.5488 40.4677 37.2863C40.7265 37.0238 40.8726 36.6706 40.8749 36.3019C40.8771 35.9332 40.7352 35.5783 40.4795 35.3127C40.2238 35.0471 39.8745 34.8919 39.506 34.8801ZM40.191 36.2941C40.1961 36.3872 40.1821 36.4803 40.1499 36.5678C40.1178 36.6553 40.0681 36.7353 40.004 36.8029C39.9399 36.8706 39.8627 36.9245 39.7771 36.9613C39.6915 36.9981 39.5992 37.0171 39.506 37.0171C39.4128 37.0171 39.3206 36.9981 39.235 36.9613C39.1493 36.9245 39.0721 36.8706 39.008 36.8029C38.9439 36.7353 38.8943 36.6553 38.8621 36.5678C38.83 36.4803 38.816 36.3872 38.821 36.2941C38.816 36.201 38.83 36.1079 38.8621 36.0204C38.8943 35.933 38.9439 35.8529 39.008 35.7853C39.0721 35.7176 39.1493 35.6637 39.235 35.6269C39.3206 35.5901 39.4128 35.5711 39.506 35.5711C39.5992 35.5711 39.6915 35.5901 39.7771 35.6269C39.8627 35.6637 39.9399 35.7176 40.004 35.7853C40.0681 35.8529 40.1178 35.933 40.1499 36.0204C40.1821 36.1079 40.1961 36.201 40.191 36.2941ZM20.777 42.7141C20.5913 42.713 20.4072 42.7485 20.2353 42.8185C20.0633 42.8885 19.9068 42.9917 19.7747 43.1223C19.6426 43.2528 19.5375 43.408 19.4654 43.5791C19.3933 43.7503 19.3556 43.9339 19.3545 44.1196C19.3534 44.3053 19.3889 44.4894 19.4589 44.6614C19.5289 44.8334 19.6321 44.9899 19.7627 45.122C19.8932 45.254 20.0484 45.3591 20.2195 45.4312C20.3907 45.5033 20.5743 45.541 20.76 45.5421C21.135 45.5444 21.4956 45.3976 21.7624 45.134C22.0291 44.8704 22.1803 44.5116 22.1825 44.1366C22.1848 43.7616 22.038 43.401 21.7744 43.1343C21.5108 42.8675 21.152 42.7164 20.777 42.7141ZM21.463 44.1281C21.463 44.3101 21.3907 44.4845 21.2621 44.6132C21.1334 44.7418 20.959 44.8141 20.777 44.8141C20.5951 44.8141 20.4206 44.7418 20.2919 44.6132C20.1633 44.4845 20.091 44.3101 20.091 44.1281C20.0913 43.9463 20.1637 43.7721 20.2923 43.6437C20.4209 43.5152 20.5953 43.4431 20.777 43.4431C20.9588 43.4431 21.1331 43.5152 21.2617 43.6437C21.3904 43.7721 21.4628 43.9463 21.463 44.1281ZM48.66 42.7141C48.3804 42.7141 48.107 42.797 47.8744 42.9524C47.6419 43.1078 47.4607 43.3286 47.3537 43.587C47.2466 43.8454 47.2186 44.1297 47.2732 44.404C47.3277 44.6783 47.4624 44.9302 47.6602 45.128C47.8579 45.3257 48.1099 45.4604 48.3842 45.5149C48.6585 45.5695 48.9428 45.5415 49.2011 45.4345C49.4595 45.3275 49.6803 45.1462 49.8357 44.9137C49.9911 44.6812 50.074 44.4078 50.074 44.1281C50.0717 43.7538 49.9219 43.3955 49.6573 43.1309C49.3926 42.8662 49.0343 42.7165 48.66 42.7141ZM49.346 44.1281C49.346 44.3101 49.2737 44.4845 49.1451 44.6132C49.0164 44.7418 48.842 44.8141 48.66 44.8141C48.4781 44.8141 48.3036 44.7418 48.1749 44.6132C48.0463 44.4845 47.974 44.3101 47.974 44.1281C47.9743 43.9463 48.0467 43.7721 48.1753 43.6437C48.3039 43.5152 48.4783 43.4431 48.66 43.4431C48.8418 43.4431 49.0161 43.5152 49.1447 43.6437C49.2734 43.7721 49.3458 43.9463 49.346 44.1281Z"/>
</mask>
<path d="M29.931 34.8801C29.7423 34.8741 29.5544 34.9059 29.3782 34.9737C29.202 35.0415 29.0412 35.1438 28.9052 35.2748C28.7692 35.4057 28.6608 35.5625 28.5864 35.736C28.512 35.9095 28.4731 36.0961 28.4719 36.2849C28.4708 36.4737 28.5075 36.6607 28.5798 36.8351C28.6521 37.0095 28.7586 37.1676 28.893 37.3002C29.0274 37.4327 29.187 37.537 29.3624 37.6069C29.5377 37.6768 29.7253 37.7109 29.914 37.7071C30.2826 37.6998 30.6338 37.5488 30.8927 37.2863C31.1515 37.0238 31.2976 36.6706 31.2999 36.3019C31.3021 35.9332 31.1602 35.5783 30.9045 35.3127C30.6488 35.0471 30.2995 34.8919 29.931 34.8801ZM30.617 36.2941C30.6172 36.4298 30.5772 36.5626 30.5019 36.6755C30.4266 36.7884 30.3196 36.8765 30.1942 36.9286C30.0689 36.9807 29.9309 36.9944 29.7978 36.9681C29.6647 36.9417 29.5423 36.8764 29.4463 36.7805C29.3503 36.6846 29.2848 36.5624 29.2583 36.4293C29.2317 36.2962 29.2452 36.1582 29.2971 36.0328C29.349 35.9074 29.437 35.8002 29.5498 35.7248C29.6626 35.6494 29.7953 35.6091 29.931 35.6091C30.1128 35.6091 30.2871 35.6813 30.4157 35.8097C30.5444 35.9381 30.6168 36.1123 30.617 36.2941ZM34.714 34.8801C34.4344 34.8803 34.1611 34.9634 33.9287 35.1189C33.6963 35.2744 33.5152 35.4953 33.4084 35.7537C33.3015 36.0121 33.2736 36.2964 33.3283 36.5706C33.383 36.8448 33.5177 37.0967 33.7155 37.2943C33.9133 37.492 34.1653 37.6265 34.4395 37.681C34.7138 37.7355 34.998 37.7074 35.2564 37.6004C35.5147 37.4933 35.7355 37.3121 35.8908 37.0796C36.0461 36.8471 36.129 36.5737 36.129 36.2941C36.1267 35.9197 35.9768 35.5612 35.7119 35.2965C35.447 35.0318 35.0885 34.8822 34.714 34.8801ZM35.4 36.2941C35.4002 36.4298 35.3602 36.5626 35.2849 36.6755C35.2096 36.7884 35.1026 36.8765 34.9772 36.9286C34.8519 36.9807 34.7139 36.9944 34.5808 36.9681C34.4477 36.9417 34.3253 36.8764 34.2293 36.7805C34.1333 36.6846 34.0678 36.5624 34.0413 36.4293C34.0147 36.2962 34.0282 36.1582 34.0801 36.0328C34.132 35.9074 34.22 35.8002 34.3328 35.7248C34.4456 35.6494 34.5783 35.6091 34.714 35.6091C34.8958 35.6091 35.0701 35.6813 35.1987 35.8097C35.3274 35.9381 35.3998 36.1123 35.4 36.2941ZM39.506 34.8801C39.3173 34.8741 39.1294 34.9059 38.9532 34.9737C38.777 35.0415 38.6162 35.1438 38.4802 35.2748C38.3442 35.4057 38.2358 35.5625 38.1614 35.736C38.087 35.9095 38.048 36.0961 38.0469 36.2849C38.0458 36.4737 38.0825 36.6607 38.1548 36.8351C38.2271 37.0095 38.3336 37.1676 38.468 37.3002C38.6024 37.4327 38.762 37.537 38.9373 37.6069C39.1127 37.6768 39.3003 37.7109 39.489 37.7071C39.8576 37.6998 40.2088 37.5488 40.4677 37.2863C40.7265 37.0238 40.8726 36.6706 40.8749 36.3019C40.8771 35.9332 40.7352 35.5783 40.4795 35.3127C40.2238 35.0471 39.8745 34.8919 39.506 34.8801ZM40.191 36.2941C40.1961 36.3872 40.1821 36.4803 40.1499 36.5678C40.1178 36.6553 40.0681 36.7353 40.004 36.8029C39.9399 36.8706 39.8627 36.9245 39.7771 36.9613C39.6915 36.9981 39.5992 37.0171 39.506 37.0171C39.4128 37.0171 39.3206 36.9981 39.235 36.9613C39.1493 36.9245 39.0721 36.8706 39.008 36.8029C38.9439 36.7353 38.8943 36.6553 38.8621 36.5678C38.83 36.4803 38.816 36.3872 38.821 36.2941C38.816 36.201 38.83 36.1079 38.8621 36.0204C38.8943 35.933 38.9439 35.8529 39.008 35.7853C39.0721 35.7176 39.1493 35.6637 39.235 35.6269C39.3206 35.5901 39.4128 35.5711 39.506 35.5711C39.5992 35.5711 39.6915 35.5901 39.7771 35.6269C39.8627 35.6637 39.9399 35.7176 40.004 35.7853C40.0681 35.8529 40.1178 35.933 40.1499 36.0204C40.1821 36.1079 40.1961 36.201 40.191 36.2941ZM20.777 42.7141C20.5913 42.713 20.4072 42.7485 20.2353 42.8185C20.0633 42.8885 19.9068 42.9917 19.7747 43.1223C19.6426 43.2528 19.5375 43.408 19.4654 43.5791C19.3933 43.7503 19.3556 43.9339 19.3545 44.1196C19.3534 44.3053 19.3889 44.4894 19.4589 44.6614C19.5289 44.8334 19.6321 44.9899 19.7627 45.122C19.8932 45.254 20.0484 45.3591 20.2195 45.4312C20.3907 45.5033 20.5743 45.541 20.76 45.5421C21.135 45.5444 21.4956 45.3976 21.7624 45.134C22.0291 44.8704 22.1803 44.5116 22.1825 44.1366C22.1848 43.7616 22.038 43.401 21.7744 43.1343C21.5108 42.8675 21.152 42.7164 20.777 42.7141ZM21.463 44.1281C21.463 44.3101 21.3907 44.4845 21.2621 44.6132C21.1334 44.7418 20.959 44.8141 20.777 44.8141C20.5951 44.8141 20.4206 44.7418 20.2919 44.6132C20.1633 44.4845 20.091 44.3101 20.091 44.1281C20.0913 43.9463 20.1637 43.7721 20.2923 43.6437C20.4209 43.5152 20.5953 43.4431 20.777 43.4431C20.9588 43.4431 21.1331 43.5152 21.2617 43.6437C21.3904 43.7721 21.4628 43.9463 21.463 44.1281ZM48.66 42.7141C48.3804 42.7141 48.107 42.797 47.8744 42.9524C47.6419 43.1078 47.4607 43.3286 47.3537 43.587C47.2466 43.8454 47.2186 44.1297 47.2732 44.404C47.3277 44.6783 47.4624 44.9302 47.6602 45.128C47.8579 45.3257 48.1099 45.4604 48.3842 45.5149C48.6585 45.5695 48.9428 45.5415 49.2011 45.4345C49.4595 45.3275 49.6803 45.1462 49.8357 44.9137C49.9911 44.6812 50.074 44.4078 50.074 44.1281C50.0717 43.7538 49.9219 43.3955 49.6573 43.1309C49.3926 42.8662 49.0343 42.7165 48.66 42.7141ZM49.346 44.1281C49.346 44.3101 49.2737 44.4845 49.1451 44.6132C49.0164 44.7418 48.842 44.8141 48.66 44.8141C48.4781 44.8141 48.3036 44.7418 48.1749 44.6132C48.0463 44.4845 47.974 44.3101 47.974 44.1281C47.9743 43.9463 48.0467 43.7721 48.1753 43.6437C48.3039 43.5152 48.4783 43.4431 48.66 43.4431C48.8418 43.4431 49.0161 43.5152 49.1447 43.6437C49.2734 43.7721 49.3458 43.9463 49.346 44.1281Z" stroke="#204B57" mask="url(#path-1-inside-1_818_14857)"/>
<path d="M60.429 58.331H52.13V40.057L54.333 38.54H52.13V34.049H53.99V33.346H52.096V27.766H52.808V23.386H51.856V18.714H51.05V14.06H50.596C50.525 13.6587 50.3323 13.289 50.0442 13.0008C49.756 12.7127 49.3863 12.52 48.985 12.449V11H48.282V12.449C47.8885 12.5279 47.528 12.724 47.248 13.0115C46.9679 13.299 46.7815 13.6645 46.713 14.06H46.25V18.714H45.428V23.377H44.485V27.757H45.196V29.223H43.705V25.494H43.105V21.011H42.788V18.157C42.7847 17.7872 42.6555 17.4295 42.4217 17.1428C42.188 16.8562 41.8636 16.6577 41.502 16.58V15.723H40.8V16.58C40.4391 16.6592 40.1157 16.8581 39.8822 17.1444C39.6487 17.4307 39.519 17.7876 39.514 18.157V21.011H39.197V25.494H38.606V29.231H30.754V25.494H30.154V21.011H29.837V18.157C29.8337 17.7872 29.7045 17.4295 29.4707 17.1428C29.237 16.8562 28.9126 16.6577 28.551 16.58V15.723H27.857V16.58C27.4961 16.6592 27.1727 16.8581 26.9392 17.1444C26.7057 17.4307 26.576 17.7876 26.571 18.157V21.011H26.254V25.494H25.663V29.231H24.206V27.766H24.917V23.386H23.974V18.714H23.169V14.06H22.714C22.6428 13.6588 22.4501 13.2891 22.162 13.001C21.8739 12.7129 21.5042 12.5202 21.103 12.449V11H20.4V12.449C20.0002 12.5215 19.6322 12.7148 19.3456 13.0029C19.059 13.2909 18.8675 13.6598 18.797 14.06H18.334V18.714H17.571V23.377H16.586V27.757H17.297V33.337H15.094V34.04H17.306V38.531H15.103L17.306 40.057V58.331H9V59H60.429V58.331ZM18.009 40.7V39.286H23.503V40.743L18.009 40.7ZM23.503 41.403V58.297H18.009V41.403H23.503ZM18.009 38.54V34.049H23.503V38.54H18.009ZM23.494 33.286H18V27.766H23.494V33.286ZM28.183 58.323V47.943C28.183 47.0842 28.3522 46.2337 28.6808 45.4403C29.0095 44.6468 29.4912 43.9258 30.0985 43.3185C30.7058 42.7112 31.4268 42.2295 32.2202 41.9008C33.0137 41.5722 33.8642 41.403 34.723 41.403C35.5818 41.403 36.4323 41.5722 37.2257 41.9008C38.0192 42.2295 38.7402 42.7112 39.3475 43.3185C39.9548 43.9258 40.4365 44.6468 40.7652 45.4403C41.0938 46.2337 41.263 47.0842 41.263 47.943V58.297L28.183 58.323ZM46.003 40.7V39.286H51.429V40.743L46.003 40.7ZM51.429 41.403V58.297H46.003V41.403H51.429ZM46.003 38.54V34.049H51.429V38.54H46.003ZM51.394 33.286H45.9V27.757H51.394V33.286ZM48.651 13.09C48.9397 13.0893 49.2206 13.1838 49.45 13.359C49.6795 13.5342 49.8447 13.7803 49.92 14.059H47.349C47.4239 13.7818 47.5878 13.5368 47.8154 13.3618C48.043 13.1867 48.3218 13.0912 48.609 13.09H48.651ZM46.937 14.753H50.366V18.713H46.937V14.753ZM46.14 19.416H51.171V23.385H46.14V19.416ZM45.197 27.062V24.088H52.106V27.062H45.197ZM40.226 18.156C40.2107 17.9923 40.2384 17.8274 40.3064 17.6777C40.3744 17.528 40.4803 17.3986 40.6137 17.3024C40.7471 17.2063 40.9032 17.1466 41.0668 17.1293C41.2303 17.112 41.3955 17.1378 41.546 17.204C41.7268 17.2844 41.8779 17.4195 41.9778 17.5903C42.0777 17.7611 42.1215 17.959 42.103 18.156V21.002H40.226V18.156ZM39.909 21.705H42.429V25.493H39.909V21.705ZM39.317 26.196H43.011V29.222H39.31L39.318 26.196H39.317ZM27.317 18.156C27.317 17.9082 27.4155 17.6705 27.5907 17.4952C27.766 17.32 28.0037 17.2215 28.2515 17.2215C28.4993 17.2215 28.737 17.32 28.9123 17.4952C29.0875 17.6705 29.186 17.9082 29.186 18.156V21.002H27.274L27.317 18.156ZM27 21.706H29.511V25.494H27V21.706ZM26.409 26.197H30.103V29.223H26.366L26.409 26.197ZM24.257 29.926H45.206V33.354H24.214L24.257 29.926ZM24.257 34.04H45.31V38.54H24.214L24.257 34.04ZM24.257 39.234H45.31V58.297H41.967V47.934C41.967 46.013 41.2039 44.1707 39.8456 42.8124C38.4872 41.4541 36.645 40.691 34.724 40.691C32.803 40.691 30.9608 41.4541 29.6024 42.8124C28.2441 44.1707 27.481 46.013 27.481 47.934V58.297H24.207L24.258 39.234H24.257ZM20.83 13.091C21.1173 13.0901 21.397 13.1835 21.626 13.357C21.8551 13.5304 22.0209 13.7742 22.098 14.051H19.492C19.5687 13.7755 19.7333 13.5327 19.9608 13.3594C20.1882 13.1861 20.4661 13.0918 20.752 13.091H20.83ZM19.115 14.754H22.544V18.714H19.115V14.754ZM18.318 19.417H23.35V23.377H18.24L18.317 19.417H18.318ZM17.375 27.054V24.08H24.284V27.054H17.375Z" fill="#00B9AE" stroke="#00B9AE" stroke-width="0.5"/>
</svg>
