<svg width="70" height="60" viewBox="0 0 70 60" fill="none" xmlns="http://www.w3.org/2000/svg">
<path d="M39.5352 21.7879H30.6082V17.1719L29.9912 15.5459H40.3362L39.5352 16.9959V21.7879ZM31.3182 21.0839H38.8252V16.8199L39.1372 16.2499H31.0132L31.3182 17.1079V21.0839Z" fill="#00B9AE" stroke="#00B9AE" stroke-width="0.5" stroke-linejoin="round"/>
<path d="M58.615 58.2959V51.8149H59.551V51.1109H58.615V41.0689H59.551V40.3649H58.615V34.5879H59.551V33.8839H58.615V28.5919H59.551V27.8889H58.615V21.8369H59.551V21.1329H58.615V17.6149L59.325 16.1509H51.867L52.577 17.6779V21.1049H17.693V17.6989L18.403 16.1719H10.931L11.641 17.6359V21.1539H10.676V21.8579H11.626V27.8879H10.676V28.5919H11.626V33.8919H10.676V34.5949H11.626V40.3719H10.676V41.0759H11.626V51.1109H10.676V51.8149H11.626V58.2949H5V58.9999H26.166V51.8159H26.599V51.1119H26.166V47.3469H44.076V51.1119H43.643V51.8159H44.076V58.9999H65.235V58.2969H58.615V58.2959ZM17.283 16.8759L17.02 17.4809V21.1259H12.337V17.5509L12.053 16.8479L17.283 16.8759ZM16.928 27.8889H12.337V21.8369H16.927V27.8889H16.928ZM12.337 40.3649V34.5879H16.927V40.3649H12.337ZM16.927 41.0689V51.1109H12.337V41.0689H16.927ZM12.337 33.8839V28.5919H16.927V33.8919L12.337 33.8839ZM25.457 58.2959H12.337V51.8149H25.457V58.2949V58.2959ZM25.457 47.3459V51.1109H17.65V41.0689H25.456V47.3459H25.457ZM25.457 40.3659H17.65V34.5879H25.456V40.3649L25.457 40.3659ZM25.457 33.8839H17.65V28.5919H25.456V33.8839H25.457ZM25.457 27.8819H17.65V21.8299H25.456V27.8819H25.457ZM44.076 46.6419H26.166V41.0699H44.076V46.6429V46.6419ZM44.076 40.3649H26.166V34.5879H44.076V40.3649ZM44.076 33.8849H26.166V28.5919H44.076V33.8839V33.8849ZM44.076 27.8819H26.166V21.8299H44.076V27.8819ZM44.786 21.8299H52.541V27.8889H44.785V21.8289L44.786 21.8299ZM44.786 28.5849H52.541V33.8849H44.785V28.5849H44.786ZM44.786 34.5879H52.541V40.3649H44.785V34.5879H44.786ZM44.786 47.3459V41.0699H52.541V51.1119H44.785V47.3469L44.786 47.3459ZM57.906 58.2959H44.786V51.8149H57.906V58.2949V58.2959ZM57.906 51.1109H53.25V41.0689H57.92L57.905 51.1109H57.906ZM57.906 40.3649H53.25V34.5879H57.92L57.905 40.3649H57.906ZM57.906 33.8849H53.25V28.5919H57.92L57.905 33.8839L57.906 33.8849ZM57.906 27.8819H53.25V21.8299H57.92L57.905 27.8819H57.906ZM57.906 17.5519V21.1259H53.25V17.4809L52.98 16.8759H58.217L57.905 17.5509L57.906 17.5519Z" fill="#00B9AE" stroke="#00B9AE" stroke-width="0.5"/>
<path d="M14.4019 13.7161C14.0148 13.7161 13.6432 13.8688 13.3679 14.1411C13.2326 14.2753 13.1252 14.435 13.0517 14.6109C12.9783 14.7868 12.9403 14.9755 12.9399 15.1661V16.8131H15.8639V15.1661C15.8618 14.7816 15.7072 14.4136 15.4339 14.1431C15.1592 13.871 14.7886 13.7176 14.4019 13.7161ZM15.1539 16.1091H13.6499V15.1661C13.6499 14.9681 13.7289 14.7781 13.8699 14.6391C14.0114 14.4986 14.2026 14.4198 14.4019 14.4198C14.6013 14.4198 14.7925 14.4986 14.9339 14.6391C15.0739 14.7791 15.1539 14.9691 15.1539 15.1661V16.1091ZM20.9369 18.4081C20.5507 18.4084 20.1802 18.5611 19.9059 18.8331C19.771 18.9674 19.6641 19.1272 19.5913 19.3031C19.5185 19.479 19.4813 19.6677 19.4819 19.8581V21.4981H22.3979V19.8581C22.3979 19.4741 22.2439 19.1051 21.9699 18.8331C21.6951 18.5608 21.3238 18.4081 20.9369 18.4081ZM21.6889 20.7941H20.1919V19.8581C20.1762 19.7015 20.2107 19.544 20.2906 19.4084C20.3704 19.2728 20.4914 19.1662 20.6359 19.1041C20.7804 19.0408 20.9409 19.0241 21.0952 19.0564C21.2495 19.0887 21.39 19.1682 21.4969 19.2841C21.5673 19.361 21.6208 19.4518 21.6539 19.5507C21.6869 19.6496 21.6989 19.7543 21.6889 19.8581V20.7941ZM27.2729 18.4081C26.8859 18.4081 26.5129 18.5611 26.2399 18.8331C25.9659 19.1051 25.8119 19.4731 25.8119 19.8581V21.4981H28.7279V19.8581C28.7289 19.6678 28.6918 19.4792 28.619 19.3034C28.5462 19.1276 28.4391 18.968 28.3039 18.8341C28.0306 18.5612 27.6602 18.4079 27.2739 18.4081H27.2729ZM27.9829 20.7941H26.5199V19.8581C26.5042 19.7015 26.5387 19.544 26.6186 19.4084C26.6984 19.2728 26.8194 19.1662 26.9639 19.1041C27.1085 19.0406 27.2692 19.0238 27.4238 19.0561C27.5783 19.0883 27.7189 19.168 27.8259 19.2841C27.8962 19.3611 27.9494 19.4519 27.9823 19.5508C28.0152 19.6497 28.027 19.7544 28.0169 19.8581L27.9819 20.7941H27.9829ZM55.7899 13.7161C56.1779 13.7161 56.5499 13.8691 56.8239 14.1411C57.0979 14.4131 57.2519 14.7811 57.2519 15.1661V16.8131H54.3299V15.1661C54.3319 14.7821 54.4859 14.4141 54.7599 14.1431C55.0347 13.8711 55.4053 13.7177 55.7919 13.7161H55.7899ZM55.0379 16.1091H56.5429V15.1661C56.5428 15.0681 56.5234 14.971 56.4856 14.8806C56.4478 14.7901 56.3926 14.7081 56.3229 14.6391C56.1815 14.4986 55.9903 14.4198 55.7909 14.4198C55.5916 14.4198 55.4004 14.4986 55.2589 14.6391C55.1893 14.7081 55.134 14.7901 55.0963 14.8806C55.0585 14.971 55.039 15.0681 55.0389 15.1661V16.1091H55.0379ZM49.2559 18.4081C49.6418 18.4087 50.0119 18.5614 50.2859 18.8331C50.4209 18.9674 50.5278 19.1272 50.6006 19.3031C50.6734 19.479 50.7105 19.6677 50.7099 19.8581V21.4981H47.7939V19.8581C47.7939 19.4741 47.9479 19.1051 48.2219 18.8331C48.4971 18.5606 48.8687 18.4078 49.2559 18.4081ZM48.5029 20.7941H50.0009V19.8581C50.0167 19.7015 49.9822 19.544 49.9023 19.4084C49.8225 19.2728 49.7015 19.1662 49.5569 19.1041C49.4124 19.0406 49.2517 19.0238 49.0971 19.0561C48.9426 19.0883 48.802 19.168 48.6949 19.2841C48.6246 19.361 48.5711 19.4518 48.538 19.5507C48.505 19.6496 48.493 19.7543 48.5029 19.8581V20.7941ZM42.9199 18.4081C43.3069 18.4081 43.6789 18.5611 43.9529 18.8331C44.2269 19.1051 44.3809 19.4731 44.3809 19.8581V21.4981H41.4569V19.8581C41.4569 19.4741 41.6109 19.1051 41.8859 18.8331C42.1608 18.5608 42.5321 18.4081 42.9189 18.4081H42.9199ZM42.1669 20.7941H43.6709V19.8581C43.6716 19.7098 43.6278 19.5648 43.545 19.4417C43.4623 19.3187 43.3445 19.2234 43.2069 19.1681C43.0227 19.0931 42.8164 19.0936 42.6325 19.1693C42.4486 19.2451 42.3019 19.3901 42.2239 19.5731C42.1863 19.6634 42.1669 19.7602 42.1669 19.8581V20.7941ZM38.6329 58.6481V54.1301C38.6114 53.8175 38.4925 53.5196 38.2929 53.2781C38.0927 53.0357 37.8223 52.8614 37.5189 52.7791C37.8426 52.0967 37.8934 51.3166 37.6609 50.5981C37.3279 49.7181 36.4829 49.0851 35.1489 48.7051V48.7891V48.7051C33.8149 49.0851 32.9709 49.7181 32.6449 50.5981C32.4098 51.3155 32.4577 52.0958 32.7789 52.7791C32.4676 52.8663 32.1918 53.0497 31.9909 53.3031C31.7909 53.5561 31.6769 53.8651 31.6659 54.1861V58.6831H32.3749V54.1801C32.3878 54.0085 32.4534 53.845 32.5628 53.7122C32.6722 53.5793 32.82 53.4836 32.9859 53.4381C33.0964 53.4069 33.2121 53.3984 33.3259 53.4131H33.9789L33.6239 52.8711C33.4344 52.5734 33.3088 52.2396 33.2551 51.8908C33.2014 51.5421 33.2208 51.186 33.3119 50.8451C33.4919 50.4841 33.7549 50.1691 34.0789 49.9251C34.4029 49.6811 34.7789 49.5151 35.1779 49.4371C35.5769 49.5141 35.9529 49.6811 36.2769 49.9251C36.5999 50.1691 36.8629 50.4841 37.0439 50.8451C37.1338 51.1861 37.1525 51.542 37.0989 51.8905C37.0452 52.2391 36.9203 52.5729 36.7319 52.8711L36.3769 53.4131H37.0299C37.2499 53.3851 37.4719 53.4431 37.6499 53.5741C37.8265 53.7052 37.9449 53.9 37.9799 54.1171V58.6141L38.6329 58.6491V58.6481Z" fill="#00B9AE" stroke="#00B9AE" stroke-width="0.5" stroke-linejoin="round"/>
<path d="M50.3269 23.6669H46.9769V26.5869H50.3269V23.6669ZM49.6169 25.8829H47.6869V24.3699H49.6169V25.8829ZM51.6679 23.8429H50.9579V26.3689H51.6679V23.8429ZM46.3459 23.8429H45.6359V26.3689H46.3459V23.8429ZM50.3269 36.0169H46.9769V38.9369H50.3269V36.0169ZM49.6169 38.2329H47.6869V36.7209H49.6169V38.2339V38.2329ZM51.6679 36.2139H50.9579V38.7399H51.6679V36.2139ZM46.3459 36.2139H45.6359V38.7399H46.3459V36.2139ZM46.9779 50.7029H50.3269V47.7749H46.9769V50.7029H46.9779ZM47.6879 48.4789H49.6179V49.9999H47.6879V48.4799V48.4789ZM51.6679 47.9799H50.9579V50.5059H51.6679V47.9799ZM46.3459 47.9799H45.6359V50.5059H46.3459V47.9799ZM23.2219 23.6669H19.8999V26.5869H23.2489L23.2209 23.6669H23.2219ZM22.5119 25.8829H20.6099V24.3699H22.5399L22.5119 25.8829ZM24.5629 23.8429H23.8529V26.3689H24.5629V23.8429ZM19.2409 23.8429H18.5309V26.3689H19.2409V23.8429ZM23.2219 36.0169H19.8999V38.9439H23.2489L23.2209 36.0169H23.2219ZM22.5119 38.2409H20.6099V36.7209H22.5399L22.5119 38.2409ZM24.5629 36.2139H23.8529V38.7399H24.5629V36.2139ZM19.2409 36.2139H18.5309V38.7399H19.2409V36.2139ZM19.8999 50.7029H23.2499V47.7829H19.8999V50.7029ZM20.6099 48.4859H22.5399V49.9999H20.6099V48.4869V48.4859ZM24.5629 47.9799H23.8529V50.5059H24.5629V47.9799ZM19.2409 47.9799H18.5309V50.5059H19.2409V47.9799ZM13.7559 20.1829C13.7559 19.9859 13.8359 19.7959 13.9759 19.6559C14.1173 19.5154 14.3085 19.4366 14.5079 19.4366C14.7072 19.4366 14.8984 19.5154 15.0399 19.6559C15.1809 19.7959 15.2599 19.9859 15.2599 20.1829V21.1269H15.9699V20.1829C15.9699 19.7989 15.8159 19.4299 15.5419 19.1589C15.2669 18.8863 14.8955 18.7334 14.5084 18.7334C14.1213 18.7334 13.7498 18.8863 13.4749 19.1589C13.2009 19.4299 13.0469 19.7989 13.0469 20.1829V21.1269H13.7559V20.1829ZM14.6289 31.4999C14.2429 31.4999 13.8729 31.6509 13.5999 31.9219C13.3269 32.1919 13.1739 32.5589 13.1739 32.9419V33.8849H13.8839V32.9419C13.9022 32.7571 13.9888 32.5859 14.1269 32.4619C14.2304 32.3697 14.3572 32.3077 14.4936 32.2828C14.6299 32.2579 14.7704 32.2709 14.8999 32.3204C15.0293 32.37 15.1426 32.4541 15.2275 32.5637C15.3123 32.6733 15.3654 32.8041 15.3809 32.9419V33.8849H16.0909V32.9419C16.0909 32.7514 16.053 32.5628 15.9794 32.3872C15.9057 32.2115 15.7978 32.0523 15.6619 31.9189C15.3868 31.6475 15.0153 31.4964 14.6289 31.4989V31.4999ZM14.6289 48.6469C14.2436 48.6463 13.8738 48.7979 13.5999 49.0689C13.3269 49.3389 13.1739 49.7069 13.1739 50.0889V51.0319H13.8839V50.0889C13.9021 49.9041 13.9888 49.7329 14.1269 49.6089C14.2304 49.5167 14.3572 49.4547 14.4936 49.4298C14.6299 49.4049 14.7704 49.4179 14.8999 49.4674C15.0293 49.517 15.1426 49.6011 15.2275 49.7107C15.3123 49.8203 15.3654 49.9511 15.3809 50.0889V51.0319H16.0909V50.0889C16.0908 49.8986 16.0528 49.7102 15.9792 49.5347C15.9055 49.3592 15.7977 49.2002 15.6619 49.0669C15.5257 48.9324 15.3644 48.8261 15.1872 48.754C15.0099 48.682 14.8202 48.6455 14.6289 48.6469ZM54.7549 20.1829C54.7549 19.9859 54.8339 19.7959 54.9749 19.6559C55.1163 19.5154 55.3075 19.4366 55.5069 19.4366C55.7062 19.4366 55.8974 19.5154 56.0389 19.6559C56.1789 19.7959 56.2589 19.9859 56.2589 20.1829V21.1269H56.9689V20.1829C56.9689 19.7989 56.8149 19.4299 56.5399 19.1589C56.2649 18.8863 55.8935 18.7334 55.5064 18.7334C55.1193 18.7334 54.7478 18.8863 54.4729 19.1589C54.1989 19.4299 54.0449 19.7989 54.0449 20.1829V21.1269H54.7549V20.1829ZM55.6269 31.4999C55.2469 31.5079 54.8869 31.6639 54.6219 31.9339C54.3569 32.2039 54.2079 32.5649 54.2079 32.9419V33.8849H54.9179V32.9419C54.9361 32.7571 55.0228 32.5859 55.1609 32.4619C55.2644 32.3697 55.3912 32.3077 55.5276 32.2828C55.6639 32.2579 55.8044 32.2709 55.9339 32.3204C56.0633 32.37 56.1766 32.4541 56.2615 32.5637C56.3463 32.6733 56.3994 32.8041 56.4149 32.9419V33.8849H57.1249V32.9419C57.125 32.7485 57.086 32.5571 57.0102 32.3793C56.9344 32.2014 56.8234 32.0407 56.6839 31.9069C56.544 31.7718 56.3785 31.6662 56.1971 31.5961C56.0158 31.526 55.8222 31.493 55.6279 31.4989L55.6269 31.4999ZM55.6269 48.6469C55.2469 48.6569 54.8869 48.8129 54.6219 49.0819C54.3569 49.3519 54.2079 49.7129 54.2079 50.0899V51.0329H54.9179V50.0899C54.9361 49.9051 55.0228 49.7339 55.1609 49.6099C55.2644 49.5177 55.3912 49.4557 55.5276 49.4308C55.6639 49.4059 55.8044 49.4189 55.9339 49.4684C56.0633 49.518 56.1766 49.6021 56.2615 49.7117C56.3463 49.8213 56.3994 49.9521 56.4149 50.0899V51.0329H57.1249V50.0899C57.125 49.8965 57.0861 49.7051 57.0103 49.5272C56.9345 49.3493 56.8234 49.1887 56.6839 49.0549C56.544 48.9198 56.3785 48.8142 56.1971 48.7441C56.0158 48.674 55.8222 48.641 55.6279 48.6469H55.6269Z" fill="#204B57"/>
<path d="M35.1212 12.8799C34.7349 12.8782 34.3636 13.0291 34.0882 13.2999C33.9528 13.4336 33.8453 13.5927 33.7716 13.7681C33.698 13.9435 33.6598 14.1317 33.6592 14.3219V15.9679H36.5832V14.3219C36.5821 14.132 36.5436 13.9441 36.4698 13.7691C36.396 13.594 36.2884 13.4353 36.1532 13.3019C35.8782 13.0306 35.5074 12.8786 35.1212 12.8789V12.8799ZM35.8732 15.2649H34.3702V14.3219C34.3702 14.1239 34.4502 13.9339 34.5902 13.7939C34.7316 13.6535 34.9229 13.5746 35.1222 13.5746C35.3215 13.5746 35.5127 13.6535 35.6542 13.7939C35.7942 13.9339 35.8742 14.1239 35.8742 14.3219V15.2649H35.8732Z" fill="#00B9AE" stroke="#00B9AE" stroke-width="0.5" stroke-linejoin="round"/>
<path d="M35.4761 11H34.7661V12.879H35.4761V11Z" fill="#00B9AE" stroke="#00B9AE" stroke-width="0.5" stroke-linejoin="round"/>
<path d="M36.7182 24.3C36.4152 24.3022 36.1241 24.4178 35.9022 24.6241C35.6837 24.4178 35.395 24.3024 35.0946 24.3011C34.7941 24.2998 34.5045 24.4127 34.2842 24.6171C34.0662 24.4143 33.7799 24.3011 33.4822 24.3C33.1642 24.3 32.8592 24.425 32.6342 24.648C32.523 24.7581 32.4348 24.8891 32.3745 25.0334C32.3143 25.1778 32.2833 25.3326 32.2832 25.489V26.989H37.9172V25.489C37.9172 25.174 37.7902 24.871 37.5652 24.649C37.3399 24.4257 37.0355 24.3002 36.7182 24.3ZM32.9922 26.285V25.489C32.9921 25.3926 33.0209 25.2984 33.0749 25.2185C33.129 25.1387 33.2057 25.0769 33.2952 25.041C33.4093 24.9941 33.537 24.9925 33.6522 25.0365C33.7675 25.0806 33.8615 25.167 33.9152 25.278C33.9072 25.348 33.9072 25.419 33.9152 25.489V26.285H32.9922ZM34.6742 26.285V25.489C34.6812 25.419 34.6812 25.349 34.6742 25.279C34.7154 25.1939 34.7809 25.1229 34.8624 25.0748C34.9439 25.0268 35.0378 25.0039 35.1322 25.009C35.2262 25.0137 35.3168 25.0456 35.3929 25.1008C35.4691 25.156 35.5276 25.2322 35.5612 25.32C35.5577 25.3767 35.5577 25.4334 35.5612 25.4901V26.284H34.6742V26.285ZM37.2072 26.285H36.2852V25.489C36.2887 25.4328 36.2887 25.3763 36.2852 25.32C36.3176 25.2275 36.3781 25.1473 36.4582 25.0906C36.5383 25.034 36.6341 25.0037 36.7322 25.0041C36.8612 25.0043 36.985 25.0553 37.0766 25.1461C37.1683 25.2368 37.2206 25.36 37.2222 25.489L37.2072 26.285ZM36.7182 36.412C36.4154 36.414 36.1243 36.5292 35.9022 36.7351C35.6838 36.5286 35.3951 36.413 35.0946 36.4117C34.7941 36.4104 34.5043 36.5235 34.2842 36.7281C34.0661 36.5256 33.7798 36.4128 33.4822 36.412C33.1642 36.412 32.8592 36.537 32.6342 36.76C32.5232 36.87 32.4351 37.0008 32.3748 37.145C32.3146 37.2892 32.2834 37.4438 32.2832 37.6V39.1H37.9172V37.6C37.9172 37.285 37.7902 36.983 37.5652 36.76C37.3397 36.537 37.0353 36.412 36.7182 36.412ZM32.9922 38.396V37.6011C32.9919 37.5045 33.0206 37.41 33.0747 37.33C33.1287 37.2499 33.2055 37.1879 33.2952 37.1521C33.4094 37.1054 33.5371 37.1041 33.6523 37.1483C33.7675 37.1925 33.8615 37.279 33.9152 37.39C33.9072 37.46 33.9072 37.53 33.9152 37.6V38.396H32.9922ZM34.6742 38.396V37.6011C34.6812 37.5311 34.6812 37.46 34.6742 37.39C34.7154 37.3049 34.7809 37.2339 34.8624 37.1858C34.9439 37.1378 35.0378 37.1149 35.1322 37.12C35.2263 37.1248 35.317 37.1568 35.3931 37.2122C35.4693 37.2676 35.5277 37.344 35.5612 37.432C35.5577 37.4883 35.5577 37.5448 35.5612 37.6011V38.396H34.6742ZM37.2072 38.396H36.2852V37.6011C36.2887 37.5448 36.2887 37.4883 36.2852 37.432C36.3176 37.3393 36.378 37.259 36.4581 37.2022C36.5382 37.1454 36.634 37.115 36.7322 37.1151C36.8613 37.1156 36.985 37.1668 37.0767 37.2577C37.1684 37.3486 37.2206 37.472 37.2222 37.6011L37.2072 38.396Z" fill="#00B9AE"/>
<path d="M31.9629 42.5959H31.2529V45.1229H31.9629V42.5959ZM33.8719 42.5959H33.1619V45.1229H33.8719V42.5959ZM35.7739 42.5959H35.0639V45.1229H35.7739V42.5959ZM37.6829 42.5959H36.9729V45.1229H37.6829V42.5959ZM39.5909 42.5959H38.8809V45.1229H39.5909V42.5959Z" fill="#204B57"/>
<path d="M65.235 58.2959H5V58.9999H65.235V58.2959Z" fill="#00B9AE" stroke="#00B9AE" stroke-width="0.5"/>
</svg>
