<svg width="70" height="60" viewBox="0 0 70 60" fill="none" xmlns="http://www.w3.org/2000/svg">
<path d="M43.8801 21.4199H43.1901V27.5399H43.8801V21.4199ZM43.8801 31.9829H43.1901V38.1029H43.8801V31.9829ZM43.8801 42.1529H43.1901V48.2729H43.8801V42.1529ZM35.3421 42.1529H34.6501V48.2729H35.3421V42.1529ZM35.3421 32.1879H34.6501V38.3079H35.3421V32.1879ZM35.3421 21.6329H34.6501V27.7529H35.3421V21.6329ZM26.8021 21.6329H26.1111V27.7529H26.8021V21.6329ZM26.8021 32.1879H26.1111V38.3079H26.8021V32.1879ZM26.8021 42.3579H26.1111V48.4779H26.8021V42.3579Z" fill="#204B57" stroke="#204B57" stroke-width="0.5"/>
<path d="M57.302 58.318V49.521H59.092V48.839H57.302V39.392H59.092V38.711H57.302V29C57.1346 28.6617 56.9013 28.3601 56.616 28.113C56.3292 27.8643 55.9962 27.6747 55.636 27.555C54.8958 27.3809 54.117 27.4983 53.461 27.883V25.42H49.854V23.03H49.171V25.404H46.321V20.204L46.213 20.105C45.5537 19.5563 44.7371 19.2313 43.881 19.177V17.033H43.198V19.193C42.3771 19.2917 41.593 19.5908 40.915 20.064L40.757 20.163V20.738H38.149V17.699C37.8612 17.1756 37.458 16.7245 36.97 16.38C36.4793 16.0339 35.9171 15.8025 35.325 15.703V13H34.633V15.71C34.053 15.82 33.503 16.056 33.026 16.401C32.549 16.747 32.156 17.193 31.876 17.707V20.747H29.243V20.171L29.085 20.064C28.4047 19.5953 27.6217 19.2969 26.802 19.194V17.034H26.111V19.185C25.2562 19.2397 24.4401 19.5615 23.778 20.105L23.662 20.204V25.412H20.829V23.038H20.138V25.412H16.598V27.876C15.9409 27.4947 15.1634 27.3774 14.423 27.548C13.7006 27.7899 13.1023 28.306 12.757 28.985V38.703H10.899V39.384H12.69V48.831H10.899V49.512H12.69V58.318H7V59H63V58.318H57.302ZM14.422 38.226C14.0345 38.3409 13.6786 38.5435 13.382 38.818V29.223C13.649 28.743 14.089 28.38 14.614 28.205C14.9578 28.1392 15.3114 28.1453 15.6527 28.2229C15.994 28.3006 16.3155 28.448 16.597 28.656V38.514C15.9419 38.1361 15.1674 38.0216 14.431 38.194L14.423 38.226H14.422ZM14.422 48.174C14.0351 48.2857 13.6792 48.4852 13.382 48.757V39.894C13.6521 39.4152 14.0916 39.0549 14.614 38.884C14.9576 38.815 15.312 38.8194 15.6538 38.8972C15.9956 38.9749 16.317 39.1241 16.597 39.335V48.494C15.9419 48.1161 15.1674 48.0016 14.431 48.174H14.423H14.422ZM16.597 49.274V54.893H13.381V49.84C13.6483 49.3566 14.0889 48.9925 14.614 48.821C14.9578 48.7553 15.3115 48.7616 15.6528 48.8394C15.9941 48.9172 16.3156 49.0648 16.597 49.273V49.274ZM20.137 28.237V34.571H17.29V26.085H23.663V34.571H20.83V28.237H20.139H20.137ZM20.137 38.472V44.74H17.29V35.252H23.663V44.74H20.83V38.464L20.139 38.472H20.137ZM20.137 48.576V54.893H17.29V45.422H23.663V54.892H20.83V48.576H20.139H20.137ZM31.852 26.44V54.894H29.244V26.439H31.852V26.44ZM29.244 25.766V21.429H31.852V25.766H29.244ZM28.553 49.366V54.894H24.388V49.34C24.9942 48.9028 25.7226 48.6677 26.47 48.668C27.22 48.668 27.949 48.904 28.553 49.34V49.365V49.366ZM28.553 39.467V48.585C27.8906 48.215 27.1458 48.0172 26.387 48.01C25.681 48.0097 24.9868 48.1908 24.371 48.536V39.443C24.9741 38.9979 25.7039 38.7577 26.4535 38.7577C27.2031 38.7577 27.9329 38.9979 28.536 39.443L28.553 39.467ZM28.553 29.052V38.679C27.8875 38.3167 27.1446 38.1195 26.387 38.104C25.6808 38.1101 24.9876 38.2937 24.371 38.638V29.028C24.977 28.5905 25.7055 28.355 26.453 28.355C27.203 28.355 27.933 28.591 28.536 29.027L28.553 29.052ZM28.553 20.533V28.271C27.8906 27.901 27.1458 27.7032 26.387 27.696C25.68 27.696 24.985 27.877 24.371 28.222V20.509C24.9782 20.0743 25.7063 19.8407 26.453 19.841C27.202 19.841 27.931 20.075 28.536 20.509L28.553 20.533ZM35 48.766C35.511 48.786 36.008 48.933 36.446 49.195C36.883 49.456 37.246 49.823 37.499 50.261V54.894H32.584V50.26C32.834 49.828 33.19 49.465 33.62 49.204C34.049 48.942 34.538 48.792 35.042 48.765H35V48.766ZM35.167 48.076H34.825C33.955 48.136 33.14 48.518 32.542 49.144V40.314C32.793 39.883 33.149 39.521 33.579 39.261C34.009 39.001 34.497 38.851 35 38.827C35.51 38.845 36.008 38.991 36.445 39.251C36.882 39.511 37.245 39.877 37.499 40.314V49.144C36.8951 48.5155 36.0786 48.1347 35.209 48.076H35.167ZM34.992 38.145C34.531 38.152 34.076 38.251 33.656 38.436C33.234 38.621 32.856 38.888 32.542 39.221V29.857C32.793 29.426 33.149 29.064 33.579 28.804C34.009 28.544 34.497 28.395 35 28.37C35.51 28.388 36.008 28.534 36.445 28.794C36.882 29.054 37.245 29.42 37.499 29.857V39.221C37.1777 38.8823 36.7909 38.6125 36.362 38.428C35.9317 38.2427 35.4685 38.1461 35 38.144H34.992V38.145ZM35.158 27.688H34.833C33.9623 27.7426 33.1444 28.124 32.543 28.756V17.929C32.8025 17.4944 33.1583 17.1253 33.583 16.85C34.009 16.574 34.494 16.397 35 16.335C35.513 16.391 36.006 16.565 36.44 16.841C36.874 17.118 37.236 17.491 37.5 17.929V28.763C36.8971 28.1274 36.0746 27.7455 35.2 27.695L35.158 27.687V27.688ZM40.765 26.44V54.894H38.149V26.439H40.765V26.44ZM38.149 25.766V21.429H40.757V25.766H38.149ZM53.403 49.283C53.6839 49.074 54.0054 48.9259 54.3469 48.8482C54.6884 48.7706 55.0423 48.765 55.386 48.832C55.9088 49.0027 56.3487 49.3631 56.619 49.842V54.894H53.395L53.403 49.284V49.283ZM54.927 48.093C54.3928 48.1007 53.869 48.2416 53.403 48.503V39.336C53.6839 39.1268 54.0053 38.9785 54.3468 38.9007C54.6883 38.8229 55.0422 38.8172 55.386 38.884C55.913 39.057 56.353 39.421 56.619 39.903V48.766C56.1691 48.3367 55.5738 48.0931 54.952 48.084L54.927 48.092V48.093ZM54.927 38.145C54.3937 38.1591 53.8714 38.2996 53.403 38.555V28.698C53.6839 28.489 54.0054 28.3409 54.3469 28.2632C54.6884 28.1856 55.0423 28.18 55.386 28.247C55.913 28.42 56.353 28.784 56.619 29.265V38.818C56.1571 38.3879 55.5501 38.1476 54.919 38.145H54.927ZM49.171 28.238V34.572H46.321V26.086H52.711V34.572H49.862V28.238H49.171ZM49.171 38.482V44.741H46.321V35.253H52.711V44.741H49.862V38.465L49.171 38.482ZM49.171 48.585V54.894H46.321V45.423H52.711V54.893H49.862V48.585H49.171ZM41.448 28.27V20.532C42.0531 20.0913 42.7825 19.8542 43.531 19.855C44.281 19.855 45.011 20.092 45.614 20.532V28.254C44.9792 27.8928 44.2614 27.7029 43.531 27.7029C42.8006 27.7029 42.0828 27.8928 41.448 28.254V28.27ZM45.614 29.026V38.636C44.9748 38.2825 44.2547 38.1012 43.5244 38.11C42.794 38.1188 42.0785 38.3172 41.448 38.686V29.06C42.0514 28.6152 42.7814 28.3755 43.531 28.376C44.281 28.376 45.013 28.616 45.614 29.06V29.027V29.026ZM45.614 39.442V48.543C44.9793 48.1816 44.2614 47.9916 43.531 47.9916C42.8006 47.9916 42.0827 48.1816 41.448 48.543V39.466C42.0531 39.0253 42.7825 38.7882 43.531 38.789C44.281 38.789 45.011 39.026 45.614 39.466V39.442ZM45.614 49.34V54.893H41.448V49.373C42.0524 48.9307 42.782 48.6925 43.531 48.693C44.281 48.693 45.011 48.931 45.614 49.373V49.34ZM56.602 55.6V58.326H13.382V55.6H56.602Z" fill="#00B9AE" stroke="#00B9AE" stroke-width="0.5"/>
</svg>
