<svg width="72" height="60" viewBox="0 0 72 60" fill="none" xmlns="http://www.w3.org/2000/svg">
<path d="M69.153 36.718C69.149 35.784 68.862 34.884 68.343 34.186C67.826 33.486 67.114 33.036 66.339 32.919V27.993H65.554V32.919C64.772 33.027 64.05 33.473 63.524 34.172C62.998 34.872 62.704 35.777 62.697 36.718V45.46H60.89C60.75 44.233 60.243 43.108 59.462 42.293C58.682 41.478 57.68 41.029 56.644 41.029C55.608 41.029 54.607 41.479 53.826 42.293C53.046 43.108 52.538 44.233 52.398 45.46H50.263V37H45.049V26.61C45.049 22.34 41.285 18.78 36.636 18.61V14H35.85V18.61C31.194 18.78 27.437 22.34 27.437 26.61V37H22.224V45.468H20.08C19.935 44.248 19.425 43.13 18.646 42.322C17.866 41.514 16.87 41.069 15.838 41.069C14.806 41.069 13.809 41.514 13.03 42.322C12.25 43.13 11.741 44.247 11.596 45.468H9.746V36.718C9.739 35.777 9.445 34.872 8.919 34.172C8.393 33.472 7.671 33.027 6.889 32.919V27.993H6.103V32.919C5.336 33.048 4.633 33.503 4.123 34.2C3.613 34.898 3.33 35.791 3.325 36.718V58.06H1V59H71V58.06H69.16L69.153 36.718ZM63.525 36.573C63.525 35.805 63.781 35.069 64.235 34.526C64.689 33.983 65.305 33.678 65.947 33.678C66.589 33.678 67.204 33.983 67.659 34.526C68.113 35.069 68.368 35.805 68.368 36.573H63.526H63.525ZM68.368 37.512V58.044H63.526V37.512H68.368ZM49.463 51.846V58.044H45.035V51.846H49.463ZM49.463 46.442V50.949H45.035V46.442H49.463ZM49.463 37.904V45.426H45.035V37.904H49.463ZM53.141 45.426C53.243 44.414 53.651 43.483 54.289 42.806C54.926 42.131 55.749 41.758 56.601 41.758C57.454 41.758 58.276 42.131 58.914 42.807C59.551 43.483 59.96 44.414 60.062 45.426H53.142H53.141ZM62.733 46.442V58.044H50.263V46.442H62.733ZM32.808 45.887C32.808 44.698 33.203 43.558 33.906 42.717C34.609 41.877 35.563 41.405 36.558 41.405C37.552 41.405 38.506 41.877 39.208 42.717C39.912 43.558 40.308 44.698 40.308 45.887V58.044H32.808V45.887ZM36.558 40.466C35.356 40.47 34.205 41.043 33.355 42.058C32.505 43.074 32.026 44.45 32.023 45.887V58.044H28.223V37.904H44.263V58.044H41.093V45.844C41.08 44.415 40.596 43.05 39.748 42.044C38.899 41.037 37.753 40.47 36.558 40.466ZM44.264 32.56V37.042H28.223V32.517L44.263 32.56H44.264ZM44.264 26.644V31.621H28.223V26.6C28.223 22.707 31.793 19.54 36.2 19.54H36.279C40.679 19.54 44.264 22.707 44.264 26.6V26.643V26.644ZM27.437 51.846V58.044H23.037V51.846H27.437ZM27.437 46.399V50.907H23.037V46.442L27.437 46.399ZM27.437 37.939V45.459H23.037V37.904L27.437 37.938V37.939ZM12.439 45.459C12.541 44.449 12.949 43.517 13.587 42.841C14.225 42.165 15.047 41.791 15.9 41.791C16.752 41.791 17.574 42.165 18.212 42.841C18.85 43.517 19.258 44.449 19.36 45.46H12.44L12.439 45.459ZM22.217 46.442V58.044H9.747V46.442H22.217ZM8.96 36.572H4.12C4.12 35.805 4.375 35.069 4.83 34.526C5.283 33.983 5.899 33.678 6.541 33.678C7.183 33.678 7.799 33.983 8.253 34.526C8.707 35.069 8.963 35.805 8.963 36.573L8.96 36.572ZM8.96 37.512V58.044H4.12V37.512H8.962H8.96Z" fill="#00B9AE" stroke="#00B9AE" stroke-width="0.5"/>
<path d="M18.1461 49.4719C17.9081 49.4719 17.6761 49.5569 17.4791 49.7139C17.274 49.8827 17.1208 50.1059 17.0371 50.3579C16.9471 50.6199 16.9231 50.9079 16.9691 51.1869C17.0151 51.4649 17.1291 51.7199 17.2971 51.9209C17.4651 52.1209 17.6791 52.2579 17.9111 52.3129C18.1441 52.3689 18.3851 52.3399 18.6051 52.2319C18.8241 52.1229 19.0111 51.9389 19.1431 51.7029C19.2768 51.459 19.3463 51.1851 19.3451 50.9069C19.3476 50.539 19.2229 50.1815 18.9921 49.8949C18.8906 49.7669 18.7622 49.6626 18.616 49.5896C18.4699 49.5165 18.3094 49.4763 18.1461 49.4719ZM18.7531 50.9069C18.7546 51.043 18.7216 51.1772 18.6571 51.2969C18.5989 51.4088 18.5083 51.5005 18.3971 51.5599C18.2924 51.614 18.1719 51.6293 18.0571 51.6029C17.9388 51.5739 17.8332 51.5072 17.7561 51.4129C17.6709 51.3102 17.6146 51.1866 17.5931 51.0549C17.5698 50.919 17.5808 50.7795 17.6251 50.6489C17.6659 50.5256 17.7408 50.4164 17.8411 50.3339C17.9329 50.2581 18.048 50.2161 18.1671 50.2149C18.3211 50.2149 18.4691 50.2879 18.5791 50.4169C18.6891 50.5469 18.7511 50.7219 18.7531 50.9069ZM13.8181 49.4719C13.5744 49.4723 13.3383 49.5563 13.1491 49.7099C12.9511 49.8669 12.7961 50.0899 12.7041 50.3519C12.6121 50.6139 12.5871 50.9019 12.6331 51.1819C12.6781 51.4599 12.7921 51.7159 12.9591 51.9179C13.1271 52.1189 13.3411 52.2569 13.5741 52.3129C13.8071 52.3689 14.0481 52.3409 14.2681 52.2329C14.4881 52.1239 14.6751 51.9409 14.8081 51.7039C14.942 51.4597 15.0115 51.1854 15.0101 50.9069C15.0127 50.5404 14.8891 50.1841 14.6601 49.8979C14.5592 49.7699 14.4316 49.6655 14.2861 49.5919C14.1407 49.5183 13.981 49.4774 13.8181 49.4719ZM14.3961 50.9069C14.3961 51.0909 14.3361 51.2669 14.2271 51.3989C14.1781 51.4614 14.116 51.5124 14.0451 51.5484C13.9743 51.5843 13.8965 51.6043 13.8171 51.6069C13.7372 51.6054 13.6587 51.5862 13.5872 51.5507C13.5156 51.5153 13.4527 51.4645 13.4031 51.4019C13.2904 51.2618 13.2299 51.0868 13.2321 50.9069C13.2317 50.7284 13.2932 50.5552 13.4061 50.4169C13.4558 50.3551 13.5184 50.305 13.5896 50.2701C13.6608 50.2352 13.7388 50.2163 13.8181 50.2149C13.9711 50.2149 14.1181 50.2879 14.2271 50.4179C14.3351 50.5479 14.3961 50.7229 14.3961 50.9069ZM58.7831 49.4719C58.5461 49.4719 58.3131 49.5569 58.1161 49.7139C57.9114 49.8828 57.7586 50.106 57.6751 50.3579C57.5841 50.6199 57.5601 50.9079 57.6061 51.1869C57.6531 51.4649 57.7661 51.7199 57.9351 51.9209C58.1021 52.1209 58.3161 52.2579 58.5491 52.3129C58.7821 52.3689 59.0231 52.3399 59.2421 52.2319C59.4621 52.1229 59.6491 51.9389 59.7811 51.7029C59.9148 51.459 59.9843 51.1851 59.9831 50.9069C59.9853 50.5389 59.8602 50.1813 59.6291 49.8949C59.5276 49.7669 59.3992 49.6626 59.253 49.5896C59.1069 49.5165 58.9464 49.4763 58.7831 49.4719ZM59.3611 50.9069C59.3611 51.0909 59.3011 51.2669 59.1931 51.3989C59.1441 51.4614 59.082 51.5124 59.0111 51.5484C58.9403 51.5843 58.8625 51.6043 58.7831 51.6069C58.7034 51.6042 58.6253 51.5841 58.5542 51.5482C58.4831 51.5123 58.4206 51.4614 58.3711 51.3989C58.2593 51.2597 58.1983 51.0865 58.1983 50.9079C58.1983 50.7294 58.2593 50.5561 58.3711 50.4169C58.4208 50.3551 58.4834 50.305 58.5546 50.2701C58.6258 50.2352 58.7038 50.2163 58.7831 50.2149C58.9361 50.2149 59.0831 50.2879 59.1921 50.4179C59.3001 50.5479 59.3621 50.7229 59.3621 50.9069H59.3611ZM54.4621 49.4719C54.2188 49.4725 53.983 49.5565 53.7941 49.7099C53.5951 49.8669 53.4401 50.0899 53.3491 50.3519C53.2571 50.6139 53.2321 50.9019 53.2771 51.1819C53.3231 51.4599 53.4371 51.7159 53.6041 51.9179C53.7721 52.1189 53.9851 52.2569 54.2181 52.3129C54.4511 52.3689 54.6931 52.3409 54.9121 52.2329C55.1321 52.1239 55.3201 51.9409 55.4521 51.7039C55.5863 51.4598 55.6562 51.1855 55.6551 50.9069C55.6575 50.5403 55.5335 50.1839 55.3041 49.8979C55.2032 49.7699 55.0756 49.6655 54.9301 49.5919C54.7847 49.5183 54.625 49.4774 54.4621 49.4719ZM55.0411 50.9069C55.0411 51.0909 54.9801 51.2669 54.8711 51.3989C54.8222 51.4613 54.7602 51.5122 54.6896 51.5482C54.6189 51.5841 54.5413 51.6041 54.4621 51.6069C54.3822 51.6054 54.3037 51.5862 54.2321 51.5507C54.1606 51.5153 54.0977 51.4645 54.0481 51.4019C53.935 51.2619 53.8742 51.0869 53.8761 50.9069C53.876 50.7283 53.9379 50.5551 54.0511 50.4169C54.1007 50.3552 54.1631 50.3052 54.2342 50.2703C54.3052 50.2354 54.383 50.2165 54.4621 50.2149C54.6161 50.2149 54.7621 50.2879 54.8721 50.4179C54.9801 50.5479 55.0411 50.7229 55.0411 50.9069Z" fill="#204B57" stroke="#204B57" stroke-width="0.5"/>
</svg>
