<svg width="87" height="60" viewBox="0 0 87 60" fill="none" xmlns="http://www.w3.org/2000/svg">
<g clip-path="url(#clip0_860_10180)">
<path d="M66.33 58.6299V52.2399H80.33V51.2899H66.33V44.2899H80.33V43.2899H66.33V36.1899H80.33V35.2399H66.33V16.2999H65.33V30.6299C61.2626 22.9298 54.7761 16.7807 46.87 13.1299V8.4799C46.87 8.3199 45.78 4.5599 43.4 3.6499H43.26C40.88 4.5599 39.84 8.3199 39.79 8.4799V13.1299C31.8607 16.7686 25.3516 22.9192 21.27 30.6299V16.2999H20.32V35.2399H6.32V36.1899H20.32V43.3699H6.32V44.3699H20.32V51.3699H6.32V52.3199H20.32V58.7099H0V59.7099H86.62V58.7099L66.33 58.6299ZM40.87 8.1399C41.19 7.2499 42.02 5.3399 43.31 4.6299C44.6 5.3299 45.42 7.2499 45.75 8.1399H40.87ZM51.94 49.5799C51.9596 48.8093 52.25 48.0702 52.7602 47.4924C53.2703 46.9145 53.9678 46.5348 54.73 46.4199V58.6299H51.94V49.5799ZM43.31 46.9999C43.8289 47.2781 44.2783 47.6699 44.6246 48.1461C44.9709 48.6223 45.2052 49.1705 45.31 49.7499V58.6399H41.31V49.7699C41.4113 49.1854 41.6439 48.6315 41.9904 48.1499C42.3368 47.6684 42.788 47.2717 43.31 46.9899V46.9999ZM43.44 45.9399H43.18L43 45.8799L42.93 46.1199C42.2483 46.4647 41.6581 46.9662 41.2079 47.5833C40.7577 48.2004 40.4602 48.9155 40.34 49.6699V58.6699H35.64V49.5799C35.64 46.5799 32.95 45.6799 31.9 45.4399V35.7999C32.1948 35.147 32.5287 34.5125 32.9 33.8999H53.77C54.1371 34.5149 54.4709 35.1491 54.77 35.7999V45.4399C53.68 45.6799 51 46.5799 51 49.5799V58.5799H46.3V49.5799C46.1777 48.8301 45.8791 48.12 45.4288 47.508C44.9786 46.8961 44.3895 46.3998 43.71 46.0599L43.64 45.8199L43.44 45.9399ZM31.89 46.4199C32.6514 46.5367 33.3477 46.9169 33.8576 47.4944C34.3674 48.0718 34.6585 48.8099 34.68 49.5799V58.5799H31.89V46.4199ZM25.83 35.8599V37.7199H21.24V33.2799L26.01 33.8699C25.8646 34.5261 25.8041 35.1983 25.83 35.8699V35.8599ZM21.45 32.3499C22.3041 30.565 23.3077 28.8556 24.45 27.2399L27.75 29.5399C27.1171 30.6072 26.6199 31.7494 26.27 32.9399L21.45 32.3499ZM25 26.4599C25.911 25.2147 26.8926 24.0228 27.94 22.8899L30.75 25.6499C29.8251 26.5951 28.9883 27.6227 28.25 28.7199L25 26.4599ZM35.73 21.5799L32.64 18.5799C33.948 17.5647 35.3209 16.636 36.75 15.7999L39.15 19.5799C37.93 20.2299 36.79 20.8999 35.73 21.5799ZM47.47 19.5799L49.87 15.7899C51.3062 16.6285 52.6859 17.5605 54 18.5799L50.91 21.5799C49.85 20.8799 48.7 20.1999 47.49 19.5799H47.47ZM51.69 22.1499L54.69 19.1499C55.8532 20.1068 56.9617 21.1284 58.01 22.2099L55.22 24.9799C54.1188 23.937 52.9386 22.9808 51.69 22.1199V22.1499ZM33.44 32.9499C35.7262 29.2399 39.2071 26.4185 43.31 24.9499C47.4205 26.4314 50.9024 29.2712 53.18 32.9999L33.44 32.9499ZM43.31 23.8899L43.01 23.7899L42.94 24.0199C34.4 26.9299 31 35.4499 31 35.5799V58.6699H26.79V35.8199C26.8408 33.7816 27.4496 31.7963 28.55 30.0799C30.34 26.9999 34.35 22.5099 43.25 18.6399H43.38C60.29 25.9899 59.85 35.7499 59.85 35.8399V58.6299H55.69V35.4999C55.69 35.4099 52.32 26.9099 43.69 23.9799L43.63 23.7499L43.31 23.8899ZM45.91 12.7199C45.18 12.4099 44.45 12.1199 43.72 11.8699L43.52 11.7899V11.6499L43.32 11.7199L43.11 11.6599V11.7999L42.92 11.8699C42.18 12.1199 41.45 12.4099 40.72 12.7199V9.0899H45.93L45.91 12.7199ZM44 17.8899V12.9899C45.7195 13.6322 47.3905 14.3976 49 15.2799L46.58 19.1099C45.75 18.6899 44.88 18.2799 44 17.8899ZM42.54 17.8899C41.66 18.2799 40.79 18.6899 39.95 19.1099L37.54 15.2899C39.1484 14.4024 40.8195 13.6337 42.54 12.9899V17.8899ZM31.4 24.9799L28.56 22.1899C29.6118 21.1083 30.7235 20.0867 31.89 19.1299L34.89 22.1299C33.6555 22.9893 32.4887 23.9421 31.4 24.9799ZM58.4 28.7199C57.6648 27.6204 56.8278 26.5925 55.9 25.6499L58.71 22.8899C59.7603 24.0202 60.742 25.2124 61.65 26.4599L58.4 28.7199ZM65.17 32.3499L60.38 32.9299C60.0212 31.7569 59.5209 30.6319 58.89 29.5799L62.19 27.2799C63.3376 28.8957 64.3415 30.6089 65.19 32.3999L65.17 32.3499ZM60.6 33.8699L65.38 33.2799V37.7199H60.79V35.8899C60.8142 35.2183 60.7538 34.5464 60.61 33.8899L60.6 33.8699ZM25.83 38.6699V43.3699H21.24V38.6699H25.83ZM25.83 44.3199V48.5799H21.24V44.3199H25.83ZM25.83 49.5299V53.8899H21.24V49.5799L25.83 49.5299ZM25.83 54.8399V58.6299H21.24V54.8399H25.83ZM65.38 38.6699V43.3599H60.79V38.6699H65.38ZM65.38 44.3099V48.5799H60.79V44.3099H65.38ZM65.38 49.5199V53.8899H60.79V49.5199H65.38ZM65.38 54.8399V58.6299H60.79V54.8399H65.38Z" fill="#00B9AE" stroke="#00B9AE" stroke-width="0.5" stroke-linejoin="round"/>
<path d="M5.31997 38.58C4.99743 38.5878 4.68437 38.6907 4.41999 38.8756C4.15561 39.0605 3.95164 39.3193 3.83363 39.6196C3.71561 39.9199 3.68878 40.2483 3.75651 40.5637C3.82423 40.8792 3.9835 41.1676 4.21437 41.393C4.44524 41.6184 4.73746 41.7707 5.05445 41.8308C5.37144 41.8909 5.69912 41.8561 5.99646 41.7309C6.29381 41.6057 6.54762 41.3956 6.72612 41.1268C6.90462 40.858 6.99988 40.5426 6.99997 40.22C7.00004 40.0012 6.95633 39.7846 6.87142 39.583C6.78651 39.3814 6.66212 39.1987 6.50557 39.0459C6.34902 38.8931 6.16348 38.7731 5.95986 38.6931C5.75625 38.6131 5.53868 38.5746 5.31997 38.58ZM6.11997 40.22C6.11997 40.4321 6.03569 40.6356 5.88566 40.7856C5.73563 40.9357 5.53214 41.02 5.31997 41.02C5.1078 41.02 4.90431 40.9357 4.75429 40.7856C4.60426 40.6356 4.51997 40.4321 4.51997 40.22C4.51997 40.0078 4.60426 39.8043 4.75429 39.6543C4.90431 39.5042 5.1078 39.42 5.31997 39.42C5.42456 39.4199 5.52811 39.4407 5.62462 39.481C5.72112 39.5214 5.80866 39.5804 5.88215 39.6549C5.95564 39.7293 6.01362 39.8176 6.05273 39.9146C6.09184 40.0116 6.1113 40.1154 6.10997 40.22H6.11997Z" fill="#204B57" stroke="#204B57" stroke-width="0.5"/>
<path d="M10.87 38.58C10.5456 38.58 10.2285 38.6761 9.95885 38.8563C9.68915 39.0366 9.47895 39.2927 9.35482 39.5924C9.23069 39.892 9.19821 40.2218 9.26149 40.5399C9.32477 40.858 9.48097 41.1503 9.71033 41.3796C9.93968 41.609 10.2319 41.7652 10.55 41.8284C10.8682 41.8917 11.1979 41.8592 11.4976 41.7351C11.7973 41.611 12.0534 41.4008 12.2336 41.1311C12.4138 40.8614 12.51 40.5443 12.51 40.22C12.5074 39.7858 12.3337 39.3702 12.0267 39.0632C11.7197 38.7562 11.3041 38.5826 10.87 38.58ZM11.67 40.22C11.67 40.4321 11.5857 40.6356 11.4357 40.7856C11.2856 40.9357 11.0822 41.02 10.87 41.02C10.6578 41.02 10.4543 40.9357 10.3043 40.7856C10.1543 40.6356 10.07 40.4321 10.07 40.22C10.07 40.0078 10.1543 39.8043 10.3043 39.6543C10.4543 39.5042 10.6578 39.42 10.87 39.42C11.0822 39.42 11.2856 39.5042 11.4357 39.6543C11.5857 39.8043 11.67 40.0078 11.67 40.22Z" fill="#204B57" stroke="#204B57" stroke-width="0.5"/>
<path d="M16.42 38.58C16.0957 38.58 15.7786 38.6761 15.5089 38.8563C15.2392 39.0366 15.029 39.2927 14.9049 39.5924C14.7807 39.892 14.7483 40.2218 14.8115 40.5399C14.8748 40.858 15.031 41.1503 15.2604 41.3796C15.4897 41.609 15.782 41.7652 16.1001 41.8284C16.4182 41.8917 16.748 41.8592 17.0476 41.7351C17.3473 41.611 17.6034 41.4008 17.7836 41.1311C17.9638 40.8614 18.06 40.5443 18.06 40.22C18.0574 39.7858 17.8838 39.3702 17.5768 39.0632C17.2698 38.7562 16.8542 38.5826 16.42 38.58ZM17.22 40.22C17.22 40.4321 17.1357 40.6356 16.9857 40.7856C16.8357 40.9357 16.6322 41.02 16.42 41.02C16.2079 41.02 16.0044 40.9357 15.8543 40.7856C15.7043 40.6356 15.62 40.4321 15.62 40.22C15.62 40.0078 15.7043 39.8043 15.8543 39.6543C16.0044 39.5042 16.2079 39.42 16.42 39.42C16.6322 39.42 16.8357 39.5042 16.9857 39.6543C17.1357 39.8043 17.22 40.0078 17.22 40.22Z" fill="#204B57" stroke="#204B57" stroke-width="0.5"/>
<path d="M5.31994 46.31C4.99698 46.3179 4.68353 46.421 4.41895 46.6063C4.15436 46.7917 3.95042 47.0511 3.83271 47.3519C3.715 47.6528 3.68876 47.9817 3.7573 48.2974C3.82584 48.6131 3.9861 48.9016 4.21796 49.1265C4.44983 49.3515 4.74297 49.503 5.0606 49.5619C5.37824 49.6209 5.70621 49.5847 6.00337 49.458C6.30054 49.3313 6.55365 49.1196 6.73094 48.8495C6.90824 48.5794 7.00182 48.263 6.99994 47.94C7.00005 47.7216 6.95629 47.5055 6.87126 47.3044C6.78624 47.1033 6.66168 46.9214 6.50499 46.7693C6.34829 46.6173 6.16265 46.4983 5.95908 46.4194C5.75552 46.3405 5.53817 46.3033 5.31994 46.31ZM6.11994 47.94C6.11994 48.1521 6.03566 48.3556 5.88563 48.5057C5.7356 48.6557 5.53212 48.74 5.31994 48.74C5.10777 48.74 4.90429 48.6557 4.75426 48.5057C4.60423 48.3556 4.51994 48.1521 4.51994 47.94C4.51994 47.7278 4.60423 47.5243 4.75426 47.3743C4.90429 47.2243 5.10777 47.14 5.31994 47.14C5.53038 47.1426 5.7313 47.228 5.87918 47.3778C6.02705 47.5275 6.10996 47.7295 6.10994 47.94H6.11994Z" fill="#204B57" stroke="#204B57" stroke-width="0.5"/>
<path d="M10.87 46.31C10.5452 46.31 10.2277 46.4064 9.95778 46.5871C9.68788 46.7677 9.47768 47.0245 9.35386 47.3247C9.23003 47.625 9.19814 47.9552 9.26223 48.2736C9.32633 48.592 9.48352 48.8842 9.71388 49.1132C9.94424 49.3421 10.2374 49.4976 10.5562 49.5597C10.875 49.6218 11.205 49.5879 11.5045 49.4623C11.804 49.3366 12.0594 49.1248 12.2384 48.8538C12.4174 48.5828 12.5119 48.2648 12.51 47.94C12.5073 47.5068 12.3334 47.0922 12.0261 46.7868C11.7188 46.4814 11.3032 46.31 10.87 46.31ZM11.67 47.94C11.67 48.1522 11.5857 48.3557 11.4356 48.5057C11.2856 48.6557 11.0821 48.74 10.87 48.74C10.6578 48.74 10.4543 48.6557 10.3043 48.5057C10.1542 48.3557 10.07 48.1522 10.07 47.94C10.07 47.7278 10.1542 47.5243 10.3043 47.3743C10.4543 47.2243 10.6578 47.14 10.87 47.14C11.0813 47.1426 11.2833 47.2277 11.4328 47.3772C11.5822 47.5267 11.6674 47.7286 11.67 47.94Z" fill="#204B57" stroke="#204B57" stroke-width="0.5"/>
<path d="M16.42 46.31C16.0952 46.31 15.7777 46.4064 15.5078 46.5871C15.2379 46.7677 15.0277 47.0244 14.9039 47.3247C14.7801 47.625 14.7482 47.9552 14.8123 48.2736C14.8764 48.592 15.0336 48.8842 15.2639 49.1132C15.4943 49.3421 15.7874 49.4975 16.1062 49.5597C16.425 49.6218 16.7551 49.5879 17.0546 49.4622C17.3541 49.3366 17.6095 49.1248 17.7885 48.8538C17.9675 48.5828 18.062 48.2647 18.06 47.94C18.06 47.7251 18.0175 47.5123 17.935 47.3139C17.8524 47.1155 17.7315 46.9353 17.5791 46.7838C17.4266 46.6323 17.2458 46.5125 17.0468 46.4312C16.8479 46.3498 16.6349 46.3086 16.42 46.31ZM17.22 47.94C17.22 48.1521 17.1357 48.3556 16.9857 48.5057C16.8357 48.6557 16.6322 48.74 16.42 48.74C16.2078 48.74 16.0043 48.6557 15.8543 48.5057C15.7043 48.3556 15.62 48.1521 15.62 47.94C15.62 47.7278 15.7043 47.5243 15.8543 47.3743C16.0043 47.2243 16.2078 47.14 16.42 47.14C16.6314 47.1426 16.8333 47.2277 16.9828 47.3772C17.1323 47.5266 17.2174 47.7286 17.22 47.94Z" fill="#204B57" stroke="#204B57" stroke-width="0.5"/>
<path d="M5.31994 53.95C4.99698 53.9579 4.68353 54.061 4.41895 54.2463C4.15436 54.4317 3.95042 54.6911 3.83271 54.992C3.715 55.2928 3.68876 55.6217 3.7573 55.9374C3.82584 56.2531 3.9861 56.5416 4.21796 56.7665C4.44983 56.9915 4.74297 57.143 5.0606 57.2019C5.37824 57.2609 5.70621 57.2248 6.00337 57.098C6.30054 56.9713 6.55365 56.7596 6.73094 56.4895C6.90824 56.2195 7.00182 55.903 6.99994 55.58C7.00005 55.3617 6.95629 55.1455 6.87126 54.9444C6.78624 54.7434 6.66168 54.5614 6.50499 54.4094C6.34829 54.2573 6.16265 54.1383 5.95908 54.0594C5.75552 53.9805 5.53817 53.9433 5.31994 53.95ZM6.11994 55.58C6.12127 55.6859 6.10155 55.791 6.06194 55.8892C6.02233 55.9874 5.96361 56.0768 5.88919 56.1521C5.81478 56.2275 5.72614 56.2873 5.62842 56.3281C5.5307 56.369 5.42585 56.39 5.31994 56.39C5.21404 56.39 5.10919 56.369 5.01147 56.3281C4.91375 56.2873 4.82511 56.2275 4.75069 56.1521C4.67627 56.0768 4.61756 55.9874 4.57795 55.8892C4.53833 55.791 4.51862 55.6859 4.51994 55.58C4.51994 55.3678 4.60423 55.1643 4.75426 55.0143C4.90429 54.8643 5.10777 54.78 5.31994 54.78C5.52956 54.7851 5.72902 54.8714 5.87635 55.0206C6.02368 55.1698 6.10742 55.3703 6.10994 55.58H6.11994Z" fill="#204B57" stroke="#204B57" stroke-width="0.5"/>
<path d="M10.87 53.95C10.5452 53.95 10.2277 54.0465 9.95778 54.2271C9.68788 54.4078 9.47768 54.6645 9.35386 54.9647C9.23003 55.265 9.19814 55.5953 9.26223 55.9137C9.32633 56.2321 9.48352 56.5243 9.71388 56.7532C9.94424 56.9822 10.2374 57.1376 10.5562 57.1997C10.875 57.2619 11.205 57.2279 11.5045 57.1023C11.804 56.9766 12.0594 56.7649 12.2384 56.4939C12.4174 56.2228 12.5119 55.9048 12.51 55.58C12.5047 55.1476 12.3299 54.7345 12.0232 54.4297C11.7165 54.1249 11.3024 53.9526 10.87 53.95ZM11.67 55.58C11.6713 55.6859 11.6516 55.791 11.6119 55.8892C11.5723 55.9875 11.5136 56.0768 11.4392 56.1522C11.3648 56.2275 11.2761 56.2873 11.1784 56.3282C11.0807 56.369 10.9759 56.39 10.87 56.39C10.764 56.39 10.6592 56.369 10.5615 56.3282C10.4638 56.2873 10.3751 56.2275 10.3007 56.1522C10.2263 56.0768 10.1676 55.9875 10.128 55.8892C10.0883 55.791 10.0686 55.6859 10.07 55.58C10.07 55.3678 10.1542 55.1644 10.3043 55.0143C10.4543 54.8643 10.6578 54.78 10.87 54.78C11.0805 54.7851 11.2811 54.871 11.43 55.0199C11.579 55.1689 11.6649 55.3694 11.67 55.58Z" fill="#204B57" stroke="#204B57" stroke-width="0.5"/>
<path d="M16.42 53.95C16.0952 53.95 15.7777 54.0464 15.5078 54.2271C15.2379 54.4077 15.0277 54.6645 14.9039 54.9647C14.7801 55.265 14.7482 55.5952 14.8123 55.9136C14.8764 56.232 15.0336 56.5242 15.2639 56.7532C15.4943 56.9821 15.7874 57.1375 16.1062 57.1997C16.425 57.2618 16.7551 57.2279 17.0546 57.1023C17.3541 56.9766 17.6095 56.7648 17.7885 56.4938C17.9675 56.2228 18.062 55.9048 18.06 55.58C18.06 55.3651 18.0175 55.1523 17.935 54.9539C17.8524 54.7555 17.7315 54.5753 17.5791 54.4238C17.4266 54.2724 17.2458 54.1525 17.0468 54.0712C16.8479 53.9899 16.6349 53.9487 16.42 53.95ZM17.22 55.58C17.2213 55.6859 17.2016 55.791 17.162 55.8892C17.1224 55.9874 17.0637 56.0768 16.9892 56.1521C16.9148 56.2275 16.8262 56.2873 16.7285 56.3281C16.6308 56.369 16.5259 56.39 16.42 56.39C16.3141 56.39 16.2092 56.369 16.1115 56.3281C16.0138 56.2873 15.9252 56.2275 15.8507 56.1521C15.7763 56.0768 15.7176 55.9874 15.678 55.8892C15.6384 55.791 15.6187 55.6859 15.62 55.58C15.62 55.3678 15.7043 55.1643 15.8543 55.0143C16.0043 54.8643 16.2078 54.78 16.42 54.78C16.6314 54.7826 16.8333 54.8677 16.9828 55.0172C17.1323 55.1666 17.2174 55.3686 17.22 55.58Z" fill="#204B57" stroke="#204B57" stroke-width="0.5"/>
<path d="M70.0001 38.58C69.6757 38.58 69.3587 38.6761 69.089 38.8563C68.8193 39.0366 68.6091 39.2927 68.4849 39.5924C68.3608 39.892 68.3283 40.2218 68.3916 40.5399C68.4549 40.858 68.6111 41.1503 68.8405 41.3796C69.0698 41.609 69.362 41.7652 69.6802 41.8284C69.9983 41.8917 70.328 41.8592 70.6277 41.7351C70.9274 41.611 71.1835 41.4008 71.3637 41.1311C71.5439 40.8614 71.6401 40.5443 71.6401 40.22C71.6375 39.7858 71.4639 39.3702 71.1569 39.0632C70.8499 38.7562 70.4343 38.5826 70.0001 38.58ZM70.8001 40.22C70.8001 40.4321 70.7158 40.6356 70.5658 40.7856C70.4158 40.9357 70.2123 41.02 70.0001 41.02C69.7879 41.02 69.5844 40.9357 69.4344 40.7856C69.2844 40.6356 69.2001 40.4321 69.2001 40.22C69.2001 40.0078 69.2844 39.8043 69.4344 39.6543C69.5844 39.5042 69.7879 39.42 70.0001 39.42C70.2123 39.42 70.4158 39.5042 70.5658 39.6543C70.7158 39.8043 70.8001 40.0078 70.8001 40.22Z" fill="#204B57" stroke="#204B57" stroke-width="0.5"/>
<path d="M75.5401 38.58C75.2158 38.58 74.8987 38.6761 74.629 38.8563C74.3593 39.0366 74.1491 39.2927 74.025 39.5924C73.9009 39.892 73.8684 40.2218 73.9317 40.5399C73.9949 40.858 74.1511 41.1503 74.3805 41.3796C74.6099 41.609 74.9021 41.7652 75.2202 41.8284C75.5383 41.8917 75.8681 41.8592 76.1677 41.7351C76.4674 41.611 76.7236 41.4008 76.9038 41.1311C77.084 40.8614 77.1801 40.5443 77.1801 40.22C77.1801 39.785 77.0074 39.3679 76.6998 39.0603C76.3922 38.7527 75.9751 38.58 75.5401 38.58ZM76.3401 40.22C76.3401 40.4321 76.2559 40.6356 76.1058 40.7856C75.9558 40.9357 75.7523 41.02 75.5401 41.02C75.328 41.02 75.1245 40.9357 74.9745 40.7856C74.8244 40.6356 74.7401 40.4321 74.7401 40.22C74.7401 40.0078 74.8244 39.8043 74.9745 39.6543C75.1245 39.5042 75.328 39.42 75.5401 39.42C75.7523 39.42 75.9558 39.5042 76.1058 39.6543C76.2559 39.8043 76.3401 40.0078 76.3401 40.22Z" fill="#204B57" stroke="#204B57" stroke-width="0.5"/>
<path d="M81.0902 38.58C80.7658 38.58 80.4488 38.6761 80.1791 38.8563C79.9094 39.0366 79.6992 39.2927 79.575 39.5924C79.4509 39.892 79.4184 40.2218 79.4817 40.5399C79.545 40.858 79.7012 41.1503 79.9305 41.3796C80.1599 41.609 80.4521 41.7652 80.7702 41.8284C81.0884 41.8917 81.4181 41.8592 81.7178 41.7351C82.0175 41.611 82.2736 41.4008 82.4538 41.1311C82.634 40.8614 82.7302 40.5443 82.7302 40.22C82.7276 39.7858 82.5539 39.3702 82.247 39.0632C81.94 38.7562 81.5243 38.5826 81.0902 38.58ZM81.8902 40.22C81.8902 40.4321 81.8059 40.6356 81.6559 40.7856C81.5059 40.9357 81.3024 41.02 81.0902 41.02C80.878 41.02 80.6745 40.9357 80.5245 40.7856C80.3745 40.6356 80.2902 40.4321 80.2902 40.22C80.2902 40.0078 80.3745 39.8043 80.5245 39.6543C80.6745 39.5042 80.878 39.42 81.0902 39.42C81.3024 39.42 81.5059 39.5042 81.6559 39.6543C81.8059 39.8043 81.8902 40.0078 81.8902 40.22Z" fill="#204B57" stroke="#204B57" stroke-width="0.5"/>
<path d="M70.0001 46.3099C69.6753 46.3099 69.3578 46.4064 69.0879 46.587C68.818 46.7677 68.6078 47.0244 68.484 47.3247C68.3602 47.6249 68.3283 47.9552 68.3924 48.2736C68.4565 48.592 68.6136 48.8842 68.844 49.1131C69.0744 49.3421 69.3675 49.4975 69.6863 49.5596C70.0051 49.6218 70.3351 49.5879 70.6346 49.4622C70.9341 49.3365 71.1896 49.1248 71.3686 48.8538C71.5476 48.5828 71.6421 48.2647 71.6401 47.9399C71.6374 47.5067 71.4635 47.0921 71.1562 46.7867C70.8489 46.4813 70.4333 46.3099 70.0001 46.3099ZM70.8001 47.9399C70.8001 48.1521 70.7158 48.3556 70.5658 48.5056C70.4157 48.6557 70.2123 48.7399 70.0001 48.7399C69.7879 48.7399 69.5844 48.6557 69.4344 48.5056C69.2844 48.3556 69.2001 48.1521 69.2001 47.9399C69.2001 47.7278 69.2844 47.5243 69.4344 47.3743C69.5844 47.2242 69.7879 47.1399 70.0001 47.1399C70.2114 47.1425 70.4134 47.2277 70.5629 47.3771C70.7124 47.5266 70.7975 47.7286 70.8001 47.9399Z" fill="#204B57" stroke="#204B57" stroke-width="0.5"/>
<path d="M75.5401 46.31C75.2153 46.31 74.8979 46.4064 74.6279 46.5871C74.358 46.7677 74.1478 47.0244 74.024 47.3247C73.9002 47.625 73.8683 47.9552 73.9324 48.2736C73.9965 48.592 74.1537 48.8842 74.384 49.1132C74.6144 49.3421 74.9076 49.4975 75.2263 49.5597C75.5451 49.6218 75.8752 49.5879 76.1747 49.4622C76.4742 49.3366 76.7296 49.1248 76.9086 48.8538C77.0876 48.5828 77.1821 48.2647 77.1801 47.94C77.1801 47.7251 77.1376 47.5123 77.0551 47.3139C76.9726 47.1155 76.8516 46.9353 76.6992 46.7838C76.5467 46.6323 76.3659 46.5125 76.167 46.4312C75.968 46.3498 75.755 46.3086 75.5401 46.31ZM76.3401 47.94C76.3401 48.1521 76.2558 48.3556 76.1058 48.5057C75.9558 48.6557 75.7523 48.74 75.5401 48.74C75.3279 48.74 75.1245 48.6557 74.9744 48.5057C74.8244 48.3556 74.7401 48.1521 74.7401 47.94C74.7401 47.7278 74.8244 47.5243 74.9744 47.3743C75.1245 47.2243 75.3279 47.14 75.5401 47.14C75.7515 47.1426 75.9535 47.2277 76.1029 47.3772C76.2524 47.5266 76.3375 47.7286 76.3401 47.94Z" fill="#204B57" stroke="#204B57" stroke-width="0.5"/>
<path d="M81.0902 46.31C80.7654 46.31 80.4479 46.4064 80.178 46.5871C79.9081 46.7677 79.6979 47.0244 79.5741 47.3247C79.4502 47.625 79.4184 47.9552 79.4824 48.2736C79.5465 48.592 79.7037 48.8842 79.9341 49.1132C80.1645 49.3421 80.4576 49.4975 80.7764 49.5597C81.0952 49.6218 81.4252 49.5879 81.7247 49.4622C82.0242 49.3366 82.2796 49.1248 82.4586 48.8538C82.6376 48.5828 82.7321 48.2647 82.7302 47.94C82.7302 47.7251 82.6877 47.5123 82.6051 47.3139C82.5226 47.1155 82.4016 46.9353 82.2492 46.7838C82.0968 46.6323 81.9159 46.5125 81.717 46.4312C81.5181 46.3498 81.3051 46.3086 81.0902 46.31ZM81.8902 47.94C81.8902 48.1521 81.8059 48.3556 81.6558 48.5057C81.5058 48.6557 81.3023 48.74 81.0902 48.74C80.878 48.74 80.6745 48.6557 80.5245 48.5057C80.3744 48.3556 80.2902 48.1521 80.2902 47.94C80.2902 47.7278 80.3744 47.5243 80.5245 47.3743C80.6745 47.2243 80.878 47.14 81.0902 47.14C81.3015 47.1426 81.5035 47.2277 81.653 47.3772C81.8025 47.5266 81.8876 47.7286 81.8902 47.94Z" fill="#204B57" stroke="#204B57" stroke-width="0.5"/>
<path d="M70.0001 53.95C69.6749 53.948 69.3564 54.0428 69.0852 54.2222C68.814 54.4016 68.6022 54.6577 68.4769 54.9577C68.3515 55.2578 68.3182 55.5884 68.3811 55.9075C68.4441 56.2265 68.6005 56.5196 68.8304 56.7496C69.0604 56.9796 69.3535 57.136 69.6726 57.1989C69.9916 57.2619 70.3222 57.2286 70.6223 57.1032C70.9224 56.9778 71.1784 56.7661 71.3578 56.4949C71.5373 56.2236 71.632 55.9052 71.6301 55.58C71.6249 55.1493 71.4515 54.7377 71.1469 54.4331C70.8423 54.1286 70.4308 53.9552 70.0001 53.95ZM70.8001 55.58C70.8014 55.6859 70.7817 55.791 70.7421 55.8892C70.7025 55.9874 70.6437 56.0768 70.5693 56.1521C70.4949 56.2275 70.4063 56.2873 70.3085 56.3281C70.2108 56.369 70.106 56.39 70.0001 56.39C69.8942 56.39 69.7893 56.369 69.6916 56.3281C69.5939 56.2873 69.5052 56.2275 69.4308 56.1521C69.3564 56.0768 69.2977 55.9874 69.2581 55.8892C69.2185 55.791 69.1987 55.6859 69.2001 55.58C69.2001 55.3678 69.2843 55.1643 69.4344 55.0143C69.5844 54.8643 69.7879 54.78 70.0001 54.78C70.2106 54.7851 70.4112 54.871 70.5601 55.0199C70.7091 55.1689 70.795 55.3694 70.8001 55.58Z" fill="#204B57" stroke="#204B57" stroke-width="0.5"/>
<path d="M75.5401 53.95C75.2153 53.95 74.8979 54.0464 74.6279 54.2271C74.358 54.4077 74.1478 54.6645 74.024 54.9647C73.9002 55.265 73.8683 55.5952 73.9324 55.9136C73.9965 56.232 74.1537 56.5242 74.384 56.7532C74.6144 56.9821 74.9076 57.1375 75.2263 57.1997C75.5451 57.2618 75.8752 57.2279 76.1747 57.1023C76.4742 56.9766 76.7296 56.7648 76.9086 56.4938C77.0876 56.2228 77.1821 55.9048 77.1801 55.58C77.1801 55.3651 77.1376 55.1523 77.0551 54.9539C76.9726 54.7555 76.8516 54.5753 76.6992 54.4238C76.5467 54.2724 76.3659 54.1525 76.167 54.0712C75.968 53.9899 75.755 53.9487 75.5401 53.95ZM76.3401 55.58C76.3414 55.6859 76.3217 55.791 76.2821 55.8892C76.2425 55.9874 76.1838 56.0768 76.1094 56.1521C76.035 56.2275 75.9463 56.2873 75.8486 56.3281C75.7509 56.369 75.646 56.39 75.5401 56.39C75.4342 56.39 75.3294 56.369 75.2316 56.3281C75.1339 56.2873 75.0453 56.2275 74.9709 56.1521C74.8964 56.0768 74.8377 55.9874 74.7981 55.8892C74.7585 55.791 74.7388 55.6859 74.7401 55.58C74.7401 55.3678 74.8244 55.1643 74.9744 55.0143C75.1245 54.8643 75.3279 54.78 75.5401 54.78C75.7507 54.7851 75.9512 54.871 76.1002 55.0199C76.2491 55.1689 76.335 55.3694 76.3401 55.58Z" fill="#204B57" stroke="#204B57" stroke-width="0.5"/>
<path d="M81.0902 53.95C80.7654 53.95 80.4479 54.0464 80.178 54.2271C79.9081 54.4077 79.6979 54.6645 79.5741 54.9647C79.4502 55.265 79.4184 55.5952 79.4824 55.9136C79.5465 56.232 79.7037 56.5242 79.9341 56.7532C80.1645 56.9821 80.4576 57.1375 80.7764 57.1997C81.0952 57.2618 81.4252 57.2279 81.7247 57.1023C82.0242 56.9766 82.2796 56.7648 82.4586 56.4938C82.6376 56.2228 82.7321 55.9048 82.7302 55.58C82.7302 55.3651 82.6877 55.1523 82.6051 54.9539C82.5226 54.7555 82.4016 54.5753 82.2492 54.4238C82.0968 54.2724 81.9159 54.1525 81.717 54.0712C81.5181 53.9899 81.3051 53.9487 81.0902 53.95ZM81.8902 55.58C81.8915 55.6859 81.8718 55.791 81.8322 55.8892C81.7926 55.9874 81.7338 56.0768 81.6594 56.1521C81.585 56.2275 81.4964 56.2873 81.3986 56.3281C81.3009 56.369 81.1961 56.39 81.0902 56.39C80.9843 56.39 80.8794 56.369 80.7817 56.3281C80.684 56.2873 80.5953 56.2275 80.5209 56.1521C80.4465 56.0768 80.3878 55.9874 80.3482 55.8892C80.3086 55.791 80.2888 55.6859 80.2902 55.58C80.2902 55.3678 80.3744 55.1643 80.5245 55.0143C80.6745 54.8643 80.878 54.78 81.0902 54.78C81.3015 54.7826 81.5035 54.8677 81.653 55.0172C81.8025 55.1666 81.8876 55.3686 81.8902 55.58Z" fill="#204B57" stroke="#204B57" stroke-width="0.5"/>
</g>
<defs>
<clipPath id="clip0_860_10180">
<rect width="87" height="60" fill="white"/>
</clipPath>
</defs>
</svg>
