<svg width="70" height="60" viewBox="0 0 70 60" fill="none" xmlns="http://www.w3.org/2000/svg">
<path d="M24.9801 36.2361C24.5748 36.2359 24.1787 36.3564 23.8421 36.5821C23.5055 36.8078 23.2437 37.1286 23.0899 37.5035C22.9362 37.8785 22.8975 38.2908 22.9789 38.6878C23.0602 39.0848 23.2578 39.4487 23.5465 39.733C23.8353 40.0174 24.2021 40.2094 24.6003 40.2846C24.9985 40.3598 25.4101 40.3149 25.7827 40.1554C26.1553 39.996 26.472 39.7293 26.6925 39.3893C26.9131 39.0493 27.0274 38.6513 27.0211 38.2461C27.0106 37.7107 26.7912 37.2007 26.4096 36.8251C26.028 36.4495 25.5145 36.2381 24.9791 36.2361H24.9801ZM26.2161 38.2461C26.2161 38.5742 26.0858 38.8888 25.8538 39.1208C25.6218 39.3528 25.3072 39.4831 24.9791 39.4831C24.651 39.4831 24.3364 39.3528 24.1044 39.1208C23.8724 38.8888 23.7421 38.5742 23.7421 38.2461C23.7421 37.918 23.8724 37.6034 24.1044 37.3714C24.3364 37.1394 24.651 37.0091 24.9791 37.0091C25.3072 37.0091 25.6218 37.1394 25.8538 37.3714C26.0858 37.6034 26.2161 37.918 26.2161 38.2461ZM45.5601 36.2361C45.1545 36.2346 44.7577 36.3538 44.4202 36.5787C44.0827 36.8035 43.8197 37.1238 43.6649 37.4987C43.5101 37.8735 43.4705 38.286 43.551 38.6835C43.6315 39.081 43.8285 39.4455 44.117 39.7305C44.4055 40.0156 44.7723 40.2083 45.1707 40.2841C45.5691 40.3599 45.9811 40.3153 46.3541 40.1561C46.7271 39.9969 47.0442 39.7302 47.2651 39.39C47.4859 39.0498 47.6004 38.6516 47.5941 38.2461C47.5837 37.7121 47.3653 37.2033 46.9854 36.8279C46.6055 36.4525 46.0941 36.2402 45.5601 36.2361ZM46.7971 38.2461C46.7971 38.574 46.6668 38.8885 46.4349 39.1204C46.203 39.3523 45.8885 39.4826 45.5606 39.4826C45.2326 39.4826 44.9181 39.3523 44.6862 39.1204C44.4544 38.8885 44.3241 38.574 44.3241 38.2461C44.3241 37.9182 44.4544 37.6036 44.6862 37.3718C44.9181 37.1399 45.2326 37.0096 45.5606 37.0096C45.8885 37.0096 46.203 37.1399 46.4349 37.3718C46.6668 37.6036 46.7971 37.9182 46.7971 38.2461ZM61.2331 38.2451C60.9605 38.2459 60.6953 38.3344 60.4769 38.4975C60.2584 38.6606 60.0982 38.8897 60.02 39.1508C59.9418 39.412 59.9498 39.6914 60.0426 39.9477C60.1355 40.2041 60.3084 40.4237 60.5357 40.5741C60.7631 40.7246 61.0328 40.7979 61.3051 40.7833C61.5773 40.7686 61.8376 40.6667 62.0474 40.4926C62.2573 40.3186 62.4055 40.0816 62.4703 39.8168C62.5351 39.552 62.5129 39.2733 62.4071 39.0221C62.3109 38.7907 62.1479 38.5932 61.939 38.4548C61.7301 38.3164 61.4847 38.2434 61.2341 38.2451H61.2331ZM61.8401 39.5151C61.8378 39.6796 61.7714 39.8367 61.655 39.9531C61.5387 40.0694 61.3816 40.1358 61.2171 40.1381C61.0644 40.1218 60.9231 40.0497 60.8204 39.9355C60.7178 39.8213 60.661 39.6732 60.661 39.5196C60.661 39.366 60.7178 39.2179 60.8204 39.1037C60.9231 38.9895 61.0644 38.9174 61.2171 38.9011C61.3817 38.9032 61.5389 38.9695 61.6553 39.0859C61.7717 39.2023 61.838 39.3595 61.8401 39.5241V39.5161V39.5151ZM52.0681 38.2451C51.7955 38.2459 51.5303 38.3344 51.3119 38.4975C51.0934 38.6606 50.9332 38.8897 50.855 39.1508C50.7768 39.412 50.7848 39.6914 50.8776 39.9477C50.9705 40.2041 51.1434 40.4237 51.3708 40.5741C51.5981 40.7246 51.8678 40.7979 52.1401 40.7833C52.4123 40.7686 52.6726 40.6667 52.8824 40.4926C53.0923 40.3186 53.2405 40.0816 53.3053 39.8168C53.3701 39.552 53.3479 39.2733 53.2421 39.0221C53.1458 38.7905 52.9827 38.5929 52.7736 38.4545C52.5645 38.3161 52.3189 38.2432 52.0681 38.2451ZM52.7081 39.5151C52.706 39.6797 52.6397 39.8369 52.5233 39.9533C52.4069 40.0697 52.2497 40.136 52.0851 40.1381C51.9324 40.1218 51.7911 40.0497 51.6884 39.9355C51.5858 39.8213 51.529 39.6732 51.529 39.5196C51.529 39.366 51.5858 39.2179 51.6884 39.1037C51.7911 38.9895 51.9324 38.9174 52.0851 38.9011C52.2497 38.9032 52.4069 38.9695 52.5233 39.0859C52.6397 39.2023 52.706 39.3595 52.7081 39.5241V39.5161V39.5151ZM18.1051 38.2451C17.8532 38.2435 17.6066 38.3169 17.3965 38.4558C17.1864 38.5947 17.0224 38.793 16.9253 39.0254C16.8282 39.2578 16.8024 39.5138 16.8511 39.7609C16.8999 40.008 17.021 40.235 17.1991 40.4131C17.3772 40.5912 17.6042 40.7123 17.8513 40.7611C18.0984 40.8098 18.3544 40.784 18.5868 40.6869C18.8192 40.5898 19.0174 40.4257 19.1564 40.2157C19.2953 40.0056 19.3687 39.759 19.3671 39.5071C19.3671 39.1724 19.2341 38.8514 18.9975 38.6147C18.7608 38.3781 18.4398 38.2451 18.1051 38.2451ZM18.7201 39.5071C18.7204 39.671 18.6559 39.8284 18.5407 39.9451C18.4256 40.0618 18.269 40.1283 18.1051 40.1301C17.9406 40.128 17.7834 40.0617 17.6672 39.9453C17.551 39.8289 17.4849 39.6716 17.4831 39.5071C17.4738 39.4203 17.483 39.3326 17.5098 39.2496C17.5367 39.1666 17.5807 39.0902 17.6391 39.0253C17.6974 38.9605 17.7687 38.9086 17.8484 38.8731C17.9281 38.8376 18.0143 38.8192 18.1016 38.8192C18.1888 38.8192 18.2751 38.8376 18.3548 38.8731C18.4345 38.9086 18.5058 38.9605 18.5641 39.0253C18.6224 39.0902 18.6665 39.1666 18.6933 39.2496C18.7202 39.3326 18.7293 39.4203 18.7201 39.5071ZM8.94008 38.2451C8.68823 38.2435 8.44159 38.3169 8.23152 38.4558C8.02145 38.5947 7.85743 38.793 7.76031 39.0254C7.6632 39.2578 7.63738 39.5138 7.68613 39.7609C7.73487 40.008 7.85599 40.235 8.03408 40.4131C8.21218 40.5912 8.4392 40.7123 8.6863 40.7611C8.9334 40.8098 9.18941 40.784 9.4218 40.6869C9.65419 40.5898 9.85245 40.4257 9.99139 40.2157C10.1303 40.0056 10.2037 39.759 10.2021 39.5071C10.2021 39.1724 10.0691 38.8514 9.83245 38.6147C9.59578 38.3781 9.27479 38.2451 8.94008 38.2451ZM9.53808 39.5151C9.53836 39.679 9.47391 39.8364 9.35874 39.9531C9.24357 40.0698 9.08701 40.1363 8.92309 40.1381C8.75884 40.1358 8.60198 40.0695 8.48584 39.9533C8.36969 39.8372 8.30341 39.6803 8.30108 39.5161C8.31735 39.3634 8.38953 39.2221 8.50371 39.1195C8.6179 39.0168 8.76603 38.96 8.91959 38.96C9.07314 38.96 9.22127 39.0168 9.33546 39.1195C9.44964 39.2221 9.52182 39.3634 9.53808 39.5161V39.5151Z" fill="#204B57" stroke="#204B57" stroke-width="0.5"/>
<path d="M64.496 58.245V34.352H62.006V29.728H49.553V23.302H47.668V21.252C47.668 19.242 46.531 17.574 45.012 17.308V15H44.182V17.308C42.662 17.574 41.525 19.242 41.525 21.251V23.301H28.632V21.251C28.632 19.242 27.495 17.574 25.975 17.308V15H25.145V17.308C23.626 17.574 22.489 19.242 22.489 21.251V23.301H20.546V29.761H8.093V34.385H5.603V58.245H3V59H67.124V58.245H64.496ZM9.33 58.17V46.257C9.28036 45.1057 9.68959 43.9817 10.4678 43.1319C11.2461 42.282 12.3298 41.7756 13.481 41.724C14.6322 41.7756 15.7159 42.282 16.4942 43.1319C17.2724 43.9817 17.6816 45.1057 17.632 46.257V58.17H9.33ZM27.545 58.17V45.45C27.5495 43.4875 28.3311 41.6066 29.7188 40.2188C31.1066 38.8311 32.9875 38.0495 34.95 38.045H35.19C37.1534 38.0471 39.0357 38.8279 40.4241 40.2162C41.8125 41.6044 42.5936 43.4866 42.596 45.45V58.17H27.545ZM48.755 34.352H43.127V30.549H48.756V34.352H48.755ZM52.533 58.17V46.257C52.4601 45.6731 52.5121 45.0804 52.6857 44.5182C52.8593 43.956 53.1505 43.4371 53.54 42.996C53.9294 42.5549 54.4082 42.2017 54.9445 41.9597C55.4809 41.7178 56.0626 41.5926 56.651 41.5926C57.2394 41.5926 57.8211 41.7178 58.3575 41.9597C58.8938 42.2017 59.3726 42.5549 59.762 42.996C60.1515 43.4371 60.4426 43.956 60.6163 44.5182C60.7899 45.0804 60.8419 45.6731 60.769 46.257V58.17H52.533ZM49.586 30.55H61.209V34.352H49.586V30.549V30.55ZM49.586 35.182H52.417V37.672H53.247V35.182H56.236V37.672H57.066V35.182H60.055V37.672H60.885V35.182H63.675V58.17H61.599V46.257C61.7279 45.2021 61.5162 44.1335 60.9947 43.2075C60.4732 42.2814 59.6693 41.5463 58.7004 41.1096C57.7314 40.6729 56.6483 40.5574 55.6091 40.78C54.5698 41.0027 53.629 41.5517 52.924 42.347C52.4563 42.8756 52.1064 43.4975 51.8972 44.1716C51.6881 44.8457 51.6246 45.5565 51.711 46.257V58.17H49.586V35.182ZM42.363 21.252C42.363 19.508 43.368 18.097 44.605 18.097C45.842 18.097 46.846 19.507 46.846 21.251V23.301H42.363V21.251V21.252ZM23.311 21.252C23.311 19.508 24.315 18.097 25.552 18.097C26.789 18.097 27.802 19.507 27.802 21.251V23.301H23.319L23.311 21.251V21.252ZM21.393 24.132H48.789V29.752H21.393V24.132ZM42.305 30.582V34.385H39.317V30.549L42.305 30.583V30.582ZM38.486 30.582V34.385H35.498V30.549L38.486 30.583V30.582ZM34.667 30.582V34.385H31.68V30.549L34.668 30.583L34.667 30.582ZM30.849 30.582V34.385H27.86V30.549L30.849 30.583V30.582ZM21.393 30.582H27.03V34.385H21.393V30.583V30.582ZM21.393 35.215H48.789V58.17H43.434V45.45C43.4295 43.2681 42.5602 41.1769 41.0166 39.6348C39.473 38.0927 37.3809 37.2254 35.199 37.223H34.959C32.7768 37.2248 30.6844 38.0919 29.1405 39.6341C27.5966 41.1763 26.7272 43.2678 26.723 45.45V58.17H21.393V35.215ZM8.94 30.583H20.563V34.385H8.94V30.583ZM6.45 35.215H9.19V37.705H10.02V35.215H13.008V37.705H13.838V35.215H16.827V37.705H17.657V35.215H20.537V58.17H18.396V46.257C18.4214 45.5777 18.3127 44.9001 18.0761 44.2629C17.8395 43.6256 17.4796 43.0413 17.017 42.5432C16.5544 42.0451 15.9982 41.6431 15.3801 41.3601C14.7621 41.0771 14.0943 40.9188 13.415 40.894C12.0437 40.9458 10.749 41.5397 9.81514 42.5452C8.88127 43.5507 8.38454 44.8856 8.434 46.257V58.17H6.483L6.449 35.215H6.45Z" fill="#00B9AE" stroke="#00B9AE" stroke-width="0.5"/>
</svg>
