<svg width="70" height="60" viewBox="0 0 70 60" fill="none" xmlns="http://www.w3.org/2000/svg">
<path d="M27.28 41.958H43.176M29.37 17.526V21.586V17.526ZM41.625 17.526V21.586V17.526ZM28.65 17.478L42.345 17.526L28.65 17.478ZM29.386 36.042V58.96V36.042ZM41.072 36.042V58.96V36.042ZM27.281 36.006H43.177H27.281ZM27.28 38.982H43.176H27.28Z" stroke="#204B57" stroke-width="1.6"/>
<path d="M10.712 54.859H26.97H10.712ZM9.478 51.157H26.97H9.478ZM42.503 51.157H59.997H42.503ZM42.503 54.859H58.98H42.503ZM4 58.924H65.625H4ZM60.472 46.439C60.472 39.6338 57.7686 33.1074 52.9567 28.2954C48.1447 23.4834 41.6182 20.78 34.813 20.78C28.0078 20.78 21.4813 23.4834 16.6693 28.2954C11.8574 33.1074 9.154 39.6338 9.154 46.439H60.472Z" stroke="#00B9AE" stroke-width="1.6"/>
<path d="M31.3892 14.709H40.9752M36.2192 12V14.739V12Z" stroke="#204B57" stroke-width="1.6"/>
</svg>
