<svg width="101" height="60" viewBox="0 0 101 60" fill="none" xmlns="http://www.w3.org/2000/svg">
<g clip-path="url(#clip0_860_10387)">
<path d="M94.86 58.72V45.27C94.2807 42.5977 93.2924 40.0308 91.93 37.66L95.05 28.4H81.18C77.906 27.0672 74.4378 26.2736 70.91 26.05C65.54 25.73 58 26.86 52.52 34L52.33 34.25L53.1 34.86L53.29 34.61C58.51 27.81 65.72 26.74 70.84 27C74.2216 27.2179 77.5467 27.9741 80.69 29.24L80.92 29.34C82.4272 29.8537 83.8648 30.5524 85.2 31.42C83.3472 31.6575 81.5081 31.9913 79.69 32.42C77.0505 31.2748 74.2317 30.598 71.36 30.42L70.17 30.37V30.29L70 30.35H69.8C63.702 30.3424 57.8264 32.6391 53.35 36.78L52.35 37.95L53.08 38.6L54.08 37.47L54.76 36.9C55.5161 37.5992 56.2181 38.3547 56.86 39.16C55.5282 40.6196 54.3394 42.2035 53.31 43.89L52.37 45.71L53.24 46.17L54.17 44.36C54.23 44.26 59.61 34.81 70.17 31.36H71.39C73.7111 31.5157 75.9978 32.004 78.18 32.81C77.51 32.99 76.88 33.17 76.25 33.36C69.44 35.43 60.3 39.81 55.14 49L54.99 49.27L55.84 49.77L55.99 49.49C60.99 40.59 69.88 36.33 76.46 34.32C77.46 34.01 78.57 33.72 79.65 33.47C82.4311 34.5772 84.7495 36.6027 86.22 39.21L78.59 58.72H57.53V54.82H60.35V53.82H39.53V54.82H41.72V58.72H21L13.36 39.21C14.8417 36.6119 17.1565 34.5895 19.93 33.47C21 33.72 22.07 34.01 23.12 34.32C29.7 36.32 38.59 40.59 43.59 49.48L43.74 49.77L44.59 49.28L44.44 49C39.28 39.81 30.14 35.43 23.44 33.38C22.81 33.19 22.17 33.01 21.51 32.83C23.6922 32.024 25.9789 31.5357 28.3 31.38H29.53C40.07 34.86 45.44 44.3 45.53 44.38L46.47 46.2L47.34 45.74L46.34 43.9C45.3171 42.2178 44.1314 40.6402 42.8 39.19C43.4421 38.3848 44.1441 37.6293 44.9 36.93C45.12 37.11 45.35 37.29 45.55 37.47L46.55 38.63L47.28 37.98L46.28 36.78C41.7716 32.6106 35.8405 30.3212 29.7 30.38H29.45L28.27 30.43C25.3989 30.6124 22.5809 31.289 19.94 32.43C18.13 32.02 16.27 31.69 14.42 31.43C15.7734 30.5516 17.2314 29.8461 18.76 29.33L18.99 29.25C22.1008 27.9898 25.3916 27.2304 28.74 27C33.87 26.7 41.07 27.78 46.29 34.56L46.48 34.81L47.25 34.2L47.06 34C41.58 26.86 34 25.74 28.67 26.05C25.1408 26.2711 21.6717 27.0683 18.4 28.41H4.52L7.65 37.65C6.28174 40.0429 5.2933 42.6338 4.72 45.33V58.72H0V59.58H100.56V58.72H94.86ZM56.78 54.81V58.72H42.48V54.81H56.78ZM10.78 43.87L8.71 37.73C9.18569 36.6474 9.81187 35.6374 10.57 34.73L19.94 58.73H15.82L10.82 44.1V43.88L10.78 43.87ZM11.78 32.18C11.49 32.43 11.21 32.69 10.95 32.95L10.62 32.11L11.78 32.18ZM11.3 34C11.8632 33.4069 12.4717 32.8586 13.12 32.36C14.85 32.54 16.58 32.81 18.29 33.15C16.0946 34.3236 14.241 36.0463 12.91 38.15L11.3 34ZM16 29.39C14.8953 29.9221 13.8439 30.5583 12.86 31.29C10.99 31.11 9.86 31.1 9.86 31.1H9.14L10.14 33.74C9.40905 34.5599 8.77178 35.4588 8.24 36.42L5.86 29.42L16 29.39ZM14.78 58.72H10.35V46.35L10.46 45.94L14.78 58.72ZM9.85 44.16C9.57 45.53 9.38 46.16 9.38 46.16V58.72H5.7V45.45C6.1999 43.1677 7.00021 40.9619 8.08 38.89L9.85 44.16ZM89.12 45.93L89.23 46.35V58.72H84.79L89.12 45.93ZM89 32.11L88.66 33C88.4 32.74 88.12 32.48 87.84 32.23C88.3 32.23 88.69 32.17 88.99 32.16L89 32.11ZM91.32 36.41C90.816 35.493 90.2124 34.6345 89.52 33.85L89.43 33.75L90.43 31.11H89.71C89.71 31.11 88.58 31.11 86.71 31.31C85.718 30.5745 84.6563 29.9381 83.54 29.41H93.69L91.32 36.41ZM86.46 32.31C87.1067 32.825 87.7119 33.3901 88.27 34L86.67 38.1C85.3369 35.9981 83.4838 34.2758 81.29 33.1C82.99 32.76 84.72 32.49 86.45 32.31H86.46ZM89 34.77C89.7606 35.6776 90.39 36.6875 90.87 37.77L88.78 43.92H88.67V44.11L83.76 58.72H79.64L89 34.77ZM93.88 45.39V58.72H90.21V46.11C90.07 45.62 89.91 44.93 89.75 44.11L91.53 38.85C92.6008 40.9048 93.4008 43.0896 93.91 45.35L93.88 45.39ZM67.05 31.49C63.4449 33.1639 60.1983 35.5207 57.49 38.43C56.8733 37.6653 56.2051 36.9436 55.49 36.27C58.8277 33.6393 62.8291 31.9847 67.05 31.49ZM32.52 31.49C36.7455 31.9788 40.7516 33.6339 44.09 36.27C43.3698 36.9385 42.7012 37.6605 42.09 38.43C39.3779 35.5206 36.1281 33.1639 32.52 31.49Z" fill="#00B9AE" stroke="#00B9AE" stroke-width="0.5"/>
<path d="M56.06 51.06V48.06H53.28V34.73C53.1612 33.8957 52.7453 33.1323 52.1087 32.5801C51.4722 32.0278 50.6578 31.7238 49.815 31.7238C48.9723 31.7238 48.1579 32.0278 47.5214 32.5801C46.8848 33.1323 46.4689 33.8957 46.35 34.73V48.09H43.57V51.09H41.79V54.84H57.47V51.06H56.06ZM47.33 48.06V34.76C47.41 34.1693 47.7143 33.6321 48.1798 33.2597C48.6452 32.8873 49.2362 32.7084 49.83 32.76C50.4211 32.7064 51.0097 32.8853 51.4709 33.2587C51.9322 33.6322 52.2296 34.1708 52.3 34.76V48.06H47.33ZM44.55 51.06V49.06H55.09V51.06H44.55ZM42.77 53.83V52.05H56.49V53.83H42.77Z" fill="#204B57" stroke="#204B57" stroke-width="0.5"/>
</g>
<defs>
<clipPath id="clip0_860_10387">
<rect width="101" height="60" fill="white"/>
</clipPath>
</defs>
</svg>
