<svg width="60" height="60" viewBox="0 0 60 60" fill="none" xmlns="http://www.w3.org/2000/svg">
<g clip-path="url(#clip0_860_10388)">
<path d="M24.4699 27.7C24.1574 27.7 23.8519 27.7926 23.5921 27.9662C23.3323 28.1398 23.1298 28.3866 23.0102 28.6753C22.8906 28.964 22.8593 29.2817 22.9203 29.5882C22.9812 29.8947 23.1317 30.1762 23.3527 30.3972C23.5736 30.6181 23.8552 30.7686 24.1617 30.8296C24.4681 30.8906 24.7858 30.8593 25.0745 30.7397C25.3632 30.6201 25.61 30.4176 25.7836 30.1578C25.9572 29.8979 26.0499 29.5924 26.0499 29.28C26.0499 28.8609 25.8834 28.459 25.5871 28.1627C25.2908 27.8664 24.8889 27.7 24.4699 27.7ZM25.2399 29.28C25.2399 29.4322 25.1947 29.5811 25.1101 29.7077C25.0255 29.8344 24.9053 29.9331 24.7646 29.9913C24.6239 30.0496 24.469 30.0649 24.3197 30.0352C24.1703 30.0054 24.0331 29.9321 23.9254 29.8244C23.8177 29.7167 23.7444 29.5795 23.7147 29.4302C23.685 29.2808 23.7002 29.126 23.7585 28.9853C23.8168 28.8446 23.9155 28.7243 24.0421 28.6397C24.1687 28.5551 24.3176 28.51 24.4699 28.51C24.6741 28.51 24.87 28.5911 25.0144 28.7355C25.1588 28.8799 25.2399 29.0757 25.2399 29.28Z" fill="#204B57" stroke="#204B57" stroke-width="0.5"/>
<path d="M29.8199 27.6999C29.6025 27.6826 29.3839 27.7105 29.1778 27.7818C28.9717 27.853 28.7826 27.9662 28.6224 28.1142C28.4621 28.2621 28.3343 28.4416 28.2468 28.6414C28.1594 28.8412 28.1143 29.0569 28.1143 29.2749C28.1143 29.493 28.1594 29.7087 28.2468 29.9085C28.3343 30.1083 28.4621 30.2878 28.6224 30.4357C28.7826 30.5837 28.9717 30.6969 29.1778 30.7681C29.3839 30.8394 29.6025 30.8673 29.8199 30.8499C30.2159 30.8184 30.5855 30.6387 30.855 30.3468C31.1246 30.055 31.2743 29.6722 31.2743 29.2749C31.2743 28.8776 31.1246 28.4949 30.855 28.203C30.5855 27.9112 30.2159 27.7315 29.8199 27.6999ZM30.5799 29.2799C30.5799 29.3798 30.5602 29.4786 30.522 29.5708C30.4838 29.663 30.4278 29.7468 30.3573 29.8173C30.2867 29.8879 30.2029 29.9439 30.1107 29.9821C30.0185 30.0203 29.9197 30.0399 29.8199 30.0399C29.6174 30.04 29.423 29.9602 29.2789 29.818C29.1348 29.6757 29.0525 29.4824 29.0499 29.2799C29.0524 29.0765 29.1344 28.8822 29.2782 28.7383C29.4221 28.5945 29.6164 28.5125 29.8199 28.5099C30.0223 28.5126 30.2156 28.5949 30.3579 28.739C30.5001 28.8831 30.5799 29.0775 30.5799 29.2799Z" fill="#204B57" stroke="#204B57" stroke-width="0.5"/>
<path d="M35.1598 27.6999C34.8469 27.6979 34.5405 27.7889 34.2793 27.9613C34.0182 28.1337 33.8141 28.3798 33.693 28.6683C33.5719 28.9568 33.5391 29.2748 33.599 29.582C33.6588 29.8891 33.8085 30.1716 34.0291 30.3936C34.2496 30.6155 34.5311 30.767 34.8379 30.8288C35.1446 30.8906 35.4628 30.8599 35.7521 30.7406C36.0414 30.6213 36.2888 30.4188 36.4628 30.1588C36.6369 29.8987 36.7298 29.5928 36.7298 29.2799C36.7311 29.0729 36.6915 28.8677 36.6132 28.676C36.5349 28.4844 36.4195 28.3101 36.2735 28.1633C36.1276 28.0164 35.9541 27.8999 35.763 27.8204C35.5718 27.7409 35.3668 27.6999 35.1598 27.6999ZM35.9298 29.2799C35.9298 29.4841 35.8487 29.68 35.7043 29.8244C35.5599 29.9688 35.364 30.0499 35.1598 30.0499C34.9556 30.0499 34.7598 29.9688 34.6154 29.8244C34.4709 29.68 34.3898 29.4841 34.3898 29.2799C34.3924 29.0765 34.4744 28.8822 34.6182 28.7383C34.7621 28.5945 34.9564 28.5125 35.1598 28.5099C35.3623 28.5126 35.5556 28.5948 35.6978 28.739C35.8401 28.8831 35.9198 29.0774 35.9198 29.2799H35.9298Z" fill="#204B57" stroke="#204B57" stroke-width="0.5"/>
<path d="M45.25 59C45.4298 58.6971 45.5263 58.3522 45.53 58V34.89C45.53 34.3596 45.3193 33.8509 44.9442 33.4758C44.5691 33.1007 44.0604 32.89 43.53 32.89H41.41C41.05 31.37 40.62 29.89 40.11 28.4C39.19 25.84 38.26 24.4 37.34 24.07L39.77 17.4C39.8507 17.1682 39.8756 16.9205 39.8426 16.6773C39.8096 16.434 39.7196 16.2019 39.58 16C39.4382 15.7948 39.2483 15.6274 39.0269 15.5123C38.8056 15.3973 38.5595 15.3381 38.31 15.34H36.39C36.39 14.39 36.25 12.23 35.03 10.99C34.4626 10.4205 33.6939 10.0973 32.89 10.09C32.8538 9.28554 32.5193 8.52339 31.9517 7.95213C31.3842 7.38087 30.6242 7.04144 29.82 7C29.0115 7.04164 28.2476 7.38354 27.678 7.95877C27.1083 8.53399 26.7738 9.30113 26.74 10.11C26.3431 10.1116 25.9504 10.192 25.5848 10.3465C25.2192 10.501 24.8878 10.7265 24.61 11.01C23.38 12.25 23.24 14.41 23.25 15.36H21.32C21.0725 15.3567 20.8278 15.4132 20.6067 15.5246C20.3856 15.636 20.1947 15.7991 20.05 16C19.9065 16.2041 19.8151 16.4402 19.7837 16.6877C19.7523 16.9352 19.782 17.1866 19.87 17.42L22.3 24.09C21.38 24.39 20.45 25.83 19.53 28.42C19.0165 29.8923 18.5825 31.3911 18.23 32.91H16.05C15.5281 32.9098 15.0268 33.1137 14.6532 33.478C14.2795 33.8423 14.063 34.3383 14.05 34.86V58C14.0537 58.3522 14.1502 58.6971 14.33 59H0V60H59.63V59H45.25ZM25.25 11.6C25.4973 11.3701 25.7921 11.1973 26.1134 11.0936C26.4348 10.9899 26.775 10.958 27.11 11H27.55V10.56C27.55 10.45 27.67 7.86 29.8 7.86C31.93 7.86 32.05 10.45 32.05 10.56V11H32.49C32.8312 10.9616 33.1766 10.999 33.5016 11.1097C33.8266 11.2203 34.1231 11.4014 34.37 11.64C35.37 12.64 35.48 14.56 35.48 15.38H24.11C24.11 14.56 24.23 12.64 25.22 11.64L25.25 11.6ZM20.71 17.13C20.6702 17.0266 20.6567 16.9149 20.6706 16.8049C20.6846 16.695 20.7256 16.5902 20.79 16.5C20.8511 16.4081 20.9345 16.3333 21.0325 16.2825C21.1304 16.2318 21.2397 16.2068 21.35 16.21H38.35C38.4607 16.2038 38.5711 16.2275 38.6696 16.2785C38.7681 16.3295 38.8511 16.406 38.91 16.5C38.973 16.5908 39.0139 16.695 39.0295 16.8044C39.0452 16.9137 39.035 17.0252 39 17.13L36.48 24.03H23.19L20.71 17.13ZM22.6 24.9H37C37.54 24.95 38.24 26.02 39 27.9C39.6185 29.5315 40.1296 31.2017 40.53 32.9H19.11C19.92 29.52 21.47 24.96 22.6 24.9ZM15.06 58V44.88H18.19C18.253 44.88 18.3155 44.8676 18.3737 44.8435C18.4319 44.8193 18.4848 44.784 18.5294 44.7394C18.574 44.6948 18.6093 44.6419 18.6335 44.5837C18.6576 44.5255 18.67 44.463 18.67 44.4C18.6714 44.3366 18.6599 44.2736 18.6362 44.2147C18.6126 44.1559 18.5773 44.1024 18.5324 44.0576C18.4876 44.0127 18.4341 43.9774 18.3753 43.9538C18.3164 43.9301 18.2534 43.9186 18.19 43.92H15.06V39.92H21.8C21.9273 39.92 22.0494 39.8694 22.1394 39.7794C22.2294 39.6894 22.28 39.5673 22.28 39.44C22.2699 39.3198 22.215 39.2077 22.126 39.1262C22.0371 39.0446 21.9207 38.9996 21.8 39H15.06V34.89C15.06 34.6248 15.1654 34.3704 15.3529 34.1829C15.5404 33.9954 15.7948 33.89 16.06 33.89H43.59C43.8552 33.89 44.1096 33.9954 44.2971 34.1829C44.4846 34.3704 44.59 34.6248 44.59 34.89V39H37.85C37.7235 39.0026 37.6029 39.0539 37.5134 39.1434C37.4239 39.2329 37.3726 39.3535 37.37 39.48C37.3686 39.5434 37.3801 39.6064 37.4038 39.6653C37.4274 39.7241 37.4627 39.7776 37.5075 39.8224C37.5524 39.8673 37.6059 39.9026 37.6647 39.9262C37.7236 39.9499 37.7866 39.9614 37.85 39.96H44.59V43.96H41.46C41.3966 43.9586 41.3336 43.9701 41.2747 43.9938C41.2159 44.0174 41.1624 44.0527 41.1175 44.0975C41.0727 44.1424 41.0374 44.1959 41.0138 44.2547C40.9901 44.3136 40.9786 44.3766 40.98 44.44C40.98 44.5673 41.0306 44.6894 41.1206 44.7794C41.2106 44.8694 41.3327 44.92 41.46 44.92H44.59V58C44.59 58.2652 44.4846 58.5196 44.2971 58.7071C44.1096 58.8946 43.8552 59 43.59 59H37.05C36.88 56.3 36.16 47.58 33.96 46.77C33.53 46.61 33.47 46.49 33.46 46.48C33.4752 46.2705 33.533 46.0663 33.63 45.88C33.9417 45.1957 34.0862 44.447 34.0514 43.6959C34.0166 42.9447 33.8036 42.2126 33.43 41.56C31.59 37.74 30.12 36.79 30.06 36.75H29.57C29.43 36.84 27.99 37.86 26.21 41.55C25.8364 42.2026 25.6234 42.9347 25.5886 43.6859C25.5538 44.437 25.6983 45.1857 26.01 45.87C26.1101 46.0551 26.1682 46.2599 26.18 46.47C26.18 46.47 26.11 46.6 25.68 46.76C23.49 47.57 22.76 56.29 22.59 58.99H16.05C15.7848 58.99 15.5304 58.8846 15.3429 58.6971C15.1554 58.5096 15.05 58.2552 15.05 57.99L15.06 58ZM26.84 45.57C26.5818 45.0048 26.4617 44.3864 26.4895 43.7657C26.5173 43.145 26.6923 42.5398 27 42C27.6773 40.4309 28.6288 38.9951 29.81 37.76C31.0013 38.9891 31.9571 40.4262 32.63 42C32.9443 42.5445 33.1237 43.1563 33.1533 43.7844C33.1829 44.4124 33.0617 45.0384 32.8 45.61C32.685 45.8021 32.6122 46.0165 32.5863 46.2389C32.5605 46.4613 32.5822 46.6866 32.65 46.9C32.7539 47.0898 32.8967 47.2556 33.069 47.3866C33.2413 47.5175 33.4393 47.6107 33.65 47.66C34.22 47.88 34.81 49.43 35.3 52.04C35.7178 54.355 36.0016 56.6923 36.15 59.04H23.49C23.6384 56.6923 23.9222 54.355 24.34 52.04C24.83 49.43 25.42 47.88 25.99 47.66C26.2007 47.6107 26.3987 47.5175 26.571 47.3866C26.7433 47.2556 26.8861 47.0898 26.99 46.9C27.058 46.685 27.0798 46.458 27.054 46.234C27.0281 46.0099 26.9552 45.7939 26.84 45.6V45.57Z" fill="#00B9AE" stroke="#00B9AE" stroke-width="0.5"/>
</g>
<defs>
<clipPath id="clip0_860_10388">
<rect width="60" height="60" fill="white"/>
</clipPath>
</defs>
</svg>
