<svg width="71" height="60" viewBox="0 0 71 60" fill="none" xmlns="http://www.w3.org/2000/svg">
<path d="M40.7662 24.6899C40.4259 24.6899 40.0996 24.8251 39.8589 25.0657C39.6183 25.3063 39.4832 25.6327 39.4832 25.9729C39.4832 26.3132 39.6183 26.6396 39.8589 26.8802C40.0996 27.1208 40.4259 27.2559 40.7662 27.2559C41.1001 27.2466 41.4172 27.1074 41.6501 26.8679C41.883 26.6284 42.0133 26.3075 42.0133 25.9734C42.0133 25.6394 41.883 25.3185 41.6501 25.079C41.4172 24.8395 41.1001 24.7003 40.7662 24.6909V24.6899ZM41.3922 25.9739C41.3955 26.0583 41.3818 26.1425 41.3519 26.2215C41.3219 26.3004 41.2763 26.3725 41.2178 26.4334C41.1593 26.4943 41.0891 26.5427 41.0114 26.5758C40.9337 26.6089 40.8501 26.626 40.7657 26.626C40.6812 26.626 40.5976 26.6089 40.52 26.5758C40.4423 26.5427 40.3721 26.4943 40.3135 26.4334C40.255 26.3725 40.2094 26.3004 40.1795 26.2215C40.1495 26.1425 40.1358 26.0583 40.1392 25.9739C40.1456 25.8121 40.2145 25.6591 40.3312 25.5469C40.448 25.4346 40.6037 25.372 40.7657 25.372C40.9276 25.372 41.0833 25.4346 41.2001 25.5469C41.3169 25.6591 41.3857 25.8121 41.3922 25.9739ZM36.1242 24.6899C35.7839 24.6899 35.4576 24.8251 35.2169 25.0657C34.9763 25.3063 34.8412 25.6327 34.8412 25.9729C34.8412 26.3132 34.9763 26.6396 35.2169 26.8802C35.4576 27.1208 35.7839 27.2559 36.1242 27.2559C36.4581 27.2466 36.7752 27.1074 37.0081 26.8679C37.241 26.6284 37.3713 26.3075 37.3713 25.9734C37.3713 25.6394 37.241 25.3185 37.0081 25.079C36.7752 24.8395 36.4581 24.7003 36.1242 24.6909V24.6899ZM36.7512 25.9739C36.7512 26.14 36.6852 26.2992 36.5678 26.4166C36.4504 26.534 36.2912 26.5999 36.1252 26.5999C35.9591 26.5999 35.7999 26.534 35.6825 26.4166C35.5651 26.2992 35.4992 26.14 35.4992 25.9739C35.4992 25.8079 35.5651 25.6487 35.6825 25.5313C35.7999 25.4139 35.9591 25.3479 36.1252 25.3479C36.2912 25.3479 36.4504 25.4139 36.5678 25.5313C36.6852 25.6487 36.7512 25.8079 36.7512 25.9739ZM31.4832 24.6899C31.1429 24.6899 30.8166 24.8251 30.5759 25.0657C30.3353 25.3063 30.2002 25.6327 30.2002 25.9729C30.2002 26.3132 30.3353 26.6396 30.5759 26.8802C30.8166 27.1208 31.1429 27.2559 31.4832 27.2559C31.8171 27.2466 32.1342 27.1074 32.3671 26.8679C32.6 26.6284 32.7303 26.3075 32.7303 25.9734C32.7303 25.6394 32.6 25.3185 32.3671 25.079C32.1342 24.8395 31.8171 24.7003 31.4832 24.6909V24.6899ZM32.1092 25.9739C32.1125 26.0582 32.0988 26.1422 32.0689 26.2211C32.039 26.2999 31.9935 26.3719 31.9351 26.4327C31.8767 26.4935 31.8066 26.5418 31.729 26.5749C31.6514 26.6079 31.568 26.625 31.4837 26.625C31.3993 26.625 31.3159 26.6079 31.2383 26.5749C31.1608 26.5418 31.0907 26.4935 31.0323 26.4327C30.9738 26.3719 30.9283 26.2999 30.8984 26.2211C30.8685 26.1422 30.8548 26.0582 30.8582 25.9739C30.8646 25.8124 30.9334 25.6596 31.0499 25.5476C31.1665 25.4355 31.322 25.373 31.4837 25.373C31.6454 25.373 31.8008 25.4355 31.9174 25.5476C32.034 25.6596 32.1027 25.8124 32.1092 25.9739ZM22.3432 33.2499C22.1717 33.2452 22.0011 33.2748 21.8413 33.3371C21.6815 33.3994 21.5358 33.4931 21.4129 33.6126C21.2899 33.7322 21.1922 33.8752 21.1255 34.0332C21.0587 34.1912 21.0243 34.3609 21.0243 34.5324C21.0243 34.7039 21.0587 34.8737 21.1255 35.0317C21.1922 35.1897 21.2899 35.3327 21.4129 35.4522C21.5358 35.5718 21.6815 35.6655 21.8413 35.7278C22.0011 35.7901 22.1717 35.8197 22.3432 35.8149C22.6834 35.8149 23.0098 35.6798 23.2504 35.4392C23.491 35.1986 23.6262 34.8722 23.6262 34.5319C23.6262 34.1917 23.491 33.8653 23.2504 33.6247C23.0098 33.3841 22.6834 33.2489 22.3432 33.2489V33.2499ZM22.9632 34.5319C22.9641 34.6142 22.9489 34.6959 22.9183 34.7723C22.8878 34.8487 22.8424 34.9183 22.785 34.9771C22.7275 35.036 22.659 35.083 22.5833 35.1154C22.5077 35.1478 22.4264 35.165 22.3442 35.1659C22.178 35.1679 22.0179 35.1038 21.899 34.9877C21.7801 34.8717 21.7122 34.7131 21.7102 34.5469C21.7092 34.4647 21.7244 34.3831 21.7549 34.3068C21.7855 34.2305 21.8308 34.1609 21.8882 34.1021C21.9456 34.0433 22.0141 33.9963 22.0897 33.964C22.1652 33.9316 22.2465 33.9144 22.3287 33.9134C22.4109 33.9125 22.4925 33.9277 22.5688 33.9582C22.6451 33.9888 22.7147 34.0341 22.7735 34.0915C22.8323 34.1489 22.8793 34.2174 22.9116 34.293C22.944 34.3685 22.9612 34.4497 22.9622 34.5319H22.9632ZM17.7022 33.2499C17.5307 33.2452 17.3601 33.2748 17.2003 33.3371C17.0405 33.3994 16.8948 33.4931 16.7719 33.6126C16.6489 33.7322 16.5512 33.8752 16.4845 34.0332C16.4177 34.1912 16.3833 34.3609 16.3833 34.5324C16.3833 34.7039 16.4177 34.8737 16.4845 35.0317C16.5512 35.1897 16.6489 35.3327 16.7719 35.4522C16.8948 35.5718 17.0405 35.6655 17.2003 35.7278C17.3601 35.7901 17.5307 35.8197 17.7022 35.8149C18.0424 35.8149 18.3688 35.6798 18.6094 35.4392C18.85 35.1986 18.9852 34.8722 18.9852 34.5319C18.9852 34.1917 18.85 33.8653 18.6094 33.6247C18.3688 33.3841 18.0424 33.2489 17.7022 33.2489V33.2499ZM18.3212 34.5319C18.3221 34.6142 18.3069 34.6957 18.2764 34.7721C18.2458 34.8484 18.2005 34.918 18.1431 34.9768C18.0857 35.0356 18.0172 35.0826 17.9417 35.1149C17.8661 35.1473 17.7849 35.1645 17.7027 35.1654C17.6205 35.1664 17.5389 35.1512 17.4625 35.1207C17.3862 35.0901 17.3166 35.0448 17.2578 34.9874C17.199 34.93 17.1521 34.8615 17.1197 34.7859C17.0873 34.7104 17.0701 34.6292 17.0692 34.5469C17.0672 34.3809 17.1312 34.2209 17.2472 34.1021C17.3632 33.9833 17.5216 33.9154 17.6877 33.9134C17.8537 33.9115 18.0137 33.9755 18.1325 34.0915C18.2513 34.2075 18.3192 34.3659 18.3212 34.5319ZM13.0752 33.2499C12.9037 33.2452 12.7331 33.2748 12.5733 33.3371C12.4135 33.3994 12.2678 33.4931 12.1449 33.6126C12.0219 33.7322 11.9242 33.8752 11.8575 34.0332C11.7907 34.1912 11.7563 34.3609 11.7563 34.5324C11.7563 34.7039 11.7907 34.8737 11.8575 35.0317C11.9242 35.1897 12.0219 35.3327 12.1449 35.4522C12.2678 35.5718 12.4135 35.6655 12.5733 35.7278C12.7331 35.7901 12.9037 35.8197 13.0752 35.8149C13.4154 35.8149 13.7418 35.6798 13.9824 35.4392C14.223 35.1986 14.3582 34.8722 14.3582 34.5319C14.3582 34.1917 14.223 33.8653 13.9824 33.6247C13.7418 33.3841 13.4154 33.2489 13.0752 33.2489V33.2499ZM13.7022 34.5319C13.7022 34.6982 13.6361 34.8577 13.5185 34.9753C13.4009 35.0929 13.2415 35.1589 13.0752 35.1589C12.9874 35.1689 12.8986 35.1602 12.8144 35.1334C12.7303 35.1067 12.6527 35.0624 12.5868 35.0036C12.521 34.9448 12.4683 34.8727 12.4322 34.7922C12.3961 34.7116 12.3775 34.6242 12.3775 34.5359C12.3775 34.4476 12.3961 34.3603 12.4322 34.2797C12.4683 34.1991 12.521 34.1271 12.5868 34.0683C12.6527 34.0094 12.7303 33.9652 12.8144 33.9384C12.8986 33.9117 12.9874 33.903 13.0752 33.9129C13.2403 33.9127 13.3989 33.9777 13.5163 34.0938C13.6338 34.2099 13.7006 34.3678 13.7022 34.5329V34.5319ZM59.2802 33.2499C59.1087 33.2452 58.9381 33.2748 58.7783 33.3371C58.6185 33.3994 58.4728 33.4931 58.3499 33.6126C58.2269 33.7322 58.1292 33.8752 58.0625 34.0332C57.9957 34.1912 57.9613 34.3609 57.9613 34.5324C57.9613 34.7039 57.9957 34.8737 58.0625 35.0317C58.1292 35.1897 58.2269 35.3327 58.3499 35.4522C58.4728 35.5718 58.6185 35.6655 58.7783 35.7278C58.9381 35.7901 59.1087 35.8197 59.2802 35.8149C59.6204 35.8149 59.9468 35.6798 60.1874 35.4392C60.428 35.1986 60.5632 34.8722 60.5632 34.5319C60.5632 34.1917 60.428 33.8653 60.1874 33.6247C59.9468 33.3841 59.6204 33.2489 59.2802 33.2489V33.2499ZM59.9062 34.5319C59.9071 34.6142 59.8919 34.6959 59.8613 34.7723C59.8308 34.8487 59.7854 34.9183 59.728 34.9771C59.6705 35.036 59.602 35.083 59.5263 35.1154C59.4507 35.1478 59.3694 35.165 59.2872 35.1659C59.2049 35.1669 59.1232 35.1517 59.0468 35.1211C58.9705 35.0905 58.9008 35.0452 58.842 34.9877C58.7831 34.9303 58.7361 34.8618 58.7037 34.7861C58.6713 34.7105 58.6541 34.6292 58.6532 34.5469C58.6512 34.3808 58.7153 34.2206 58.8314 34.1017C58.9474 33.9828 59.106 33.9149 59.2722 33.9129C59.4383 33.911 59.5985 33.9751 59.7174 34.0911C59.8363 34.2072 59.9042 34.3658 59.9062 34.5319ZM54.6382 33.2499C54.4667 33.2452 54.2961 33.2748 54.1363 33.3371C53.9765 33.3994 53.8308 33.4931 53.7079 33.6126C53.5849 33.7322 53.4872 33.8752 53.4205 34.0332C53.3537 34.1912 53.3193 34.3609 53.3193 34.5324C53.3193 34.7039 53.3537 34.8737 53.4205 35.0317C53.4872 35.1897 53.5849 35.3327 53.7079 35.4522C53.8308 35.5718 53.9765 35.6655 54.1363 35.7278C54.2961 35.7901 54.4667 35.8197 54.6382 35.8149C54.9784 35.8149 55.3048 35.6798 55.5454 35.4392C55.786 35.1986 55.9212 34.8722 55.9212 34.5319C55.9212 34.1917 55.786 33.8653 55.5454 33.6247C55.3048 33.3841 54.9784 33.2489 54.6382 33.2489V33.2499ZM55.2572 34.5319C55.2581 34.6142 55.2429 34.6959 55.2123 34.7723C55.1818 34.8487 55.1364 34.9183 55.079 34.9771C55.0215 35.036 54.953 35.083 54.8773 35.1154C54.8017 35.1478 54.7204 35.165 54.6382 35.1659C54.5559 35.1669 54.4742 35.1517 54.3978 35.1211C54.3215 35.0905 54.2518 35.0452 54.193 34.9877C54.1341 34.9303 54.0871 34.8618 54.0547 34.7861C54.0223 34.7105 54.0051 34.6292 54.0042 34.5469C54.0022 34.3808 54.0663 34.2206 54.1824 34.1017C54.2984 33.9828 54.457 33.9149 54.6232 33.9129C54.7893 33.911 54.9495 33.9751 55.0684 34.0911C55.1873 34.2072 55.2552 34.3658 55.2572 34.5319ZM49.9962 33.2499C49.8247 33.2452 49.6541 33.2748 49.4943 33.3371C49.3345 33.3994 49.1888 33.4931 49.0659 33.6126C48.9429 33.7322 48.8452 33.8752 48.7785 34.0332C48.7117 34.1912 48.6773 34.3609 48.6773 34.5324C48.6773 34.7039 48.7117 34.8737 48.7785 35.0317C48.8452 35.1897 48.9429 35.3327 49.0659 35.4522C49.1888 35.5718 49.3345 35.6655 49.4943 35.7278C49.6541 35.7901 49.8247 35.8197 49.9962 35.8149C50.3364 35.8149 50.6628 35.6798 50.9034 35.4392C51.144 35.1986 51.2792 34.8722 51.2792 34.5319C51.2792 34.1917 51.144 33.8653 50.9034 33.6247C50.6628 33.3841 50.3364 33.2489 49.9962 33.2489V33.2499ZM50.6162 34.5319C50.6171 34.6143 50.6019 34.696 50.5713 34.7725C50.5407 34.8489 50.4953 34.9186 50.4378 34.9775C50.3803 35.0364 50.3117 35.0834 50.236 35.1158C50.1603 35.1483 50.079 35.1655 49.9967 35.1664C49.9143 35.1674 49.8326 35.1522 49.7561 35.1216C49.6797 35.091 49.61 35.0456 49.5511 34.9881C49.4321 34.8719 49.3642 34.7132 49.3622 34.5469C49.3664 34.3848 49.4333 34.2307 49.5487 34.1168C49.6642 34.003 49.8193 33.9383 49.9814 33.9364C50.1436 33.9344 50.3002 33.9954 50.4183 34.1064C50.5365 34.2175 50.607 34.37 50.6152 34.5319H50.6162Z" fill="#204B57" stroke="#204B57" stroke-width="0.5"/>
<path d="M66.66 58.245V53H64.185V41.876H67.098V41.023H64.185V32.147H67.098V31.309H64.185V26.306H64.14C64.0918 26.2125 64.0111 26.14 63.913 26.102C58.5404 23.9865 52.6425 23.5961 47.038 24.985V22.819H49.143V21.966H44.773V19H26.933V21.966H22.057V22.819H24.125V24.849C18.6766 23.642 12.9926 24.078 7.792 26.102C7.69272 26.1376 7.6115 26.2109 7.566 26.306H7.521V31.309H4.608V32.162H7.52V41.022H4.608V41.876H7.52V52.962H4.84V58.245H1V59H70.69V58.245H66.66ZM63.332 26.796V31.128C60.2134 29.9975 56.9212 29.4205 53.604 29.423C50.5567 29.356 47.5267 29.8972 44.691 31.015V26.743C45.626 26.313 53.431 23.03 63.332 26.796ZM44.691 46.238V31.98C45.634 31.55 53.431 28.267 63.332 32.025V46.237H44.691V46.238ZM63.332 47.091V53H44.691V47.09H63.332V47.091ZM27.785 19.853H43.92V21.966H27.785V19.853ZM24.977 22.819H46.162V25.234C45.4079 25.4383 44.6865 25.748 44.019 26.154C43.9646 26.1935 43.9207 26.2457 43.891 26.306H43.845V29.408H27.875V26.306H27.83C27.8001 26.2461 27.7562 26.1943 27.702 26.155C26.8531 25.6516 25.935 25.2753 24.977 25.038V22.818V22.819ZM35.853 32.977C33 32.977 30.683 34.706 30.683 36.827V53H27.868V30.26H43.838V53H41V36.826C41 34.698 38.683 32.977 35.83 32.977H35.853ZM40.17 36.827V53H31.536V36.826C31.536 35.174 33.476 33.807 35.853 33.807C38.23 33.807 40.17 35.151 40.17 36.827ZM8.374 26.796C18.276 23.022 26.079 26.312 27.015 26.742V31.014C24.177 29.701 16.449 28.169 8.374 31.127V26.795V26.796ZM8.374 32.033C18.276 28.259 26.079 31.55 27.015 31.988V46.237H8.374V32.034V32.033ZM8.374 47.127H27.015V53.037H8.374V47.127ZM5.694 53.92H65.8V58.222H5.694V53.92Z" fill="#00B9AE" stroke="#00B9AE" stroke-width="0.5"/>
</svg>
